<svg fill="none" height="23" viewBox="0 0 31 23" width="31" xmlns="http://www.w3.org/2000/svg"><g fill="#000"><path d="m21.2877 1.22153c-.0689.00266-.1356.02533-.1921.06529-.0564.03997-.1003.09553-.1263.16003-.0261.06451-.0331.13522-.0204.20367.0128.06845.0448.13174.0923.18228l8.0808 9.1805h-28.00741c-.02235-.0036-.0449-.0036-.06725 0-.187787.0177-.342631.2066-.325026.3962.017606.1897.204486.3461.392276.3283h28.00741l-8.0808 9.1691c-.064.0721-.0969.1668-.0916.2634.0052.0966.0482.1871.1196.2517.0713.0645.1651.0978.2608.0925.0956-.0053.1852-.0488.2491-.1208l8.6077-9.7805c.0598-.0666.093-.1534.093-.2433 0-.09-.0332-.1768-.093-.2434l-8.6077-9.78045c-.0359-.04188-.0808-.07488-.1313-.09647-.0506-.02159-.1053-.03118-.1601-.02805z"/><path clip-rule="evenodd" d="m21.2772 1.00119c.0881-.004722.1761.01088.2572.04555.0814.03474.1535.08767.2112.15458.0003.00038.0007.00076.001.00114l8.6043 9.77664c.0003.0003.0005.0006.0008.0009.0959.1072.1487.2462.1487.3899s-.0528.2826-.1487.3899c-.0003.0003-.0005.0005-.0008.0008l-8.6062 9.7788-.0005.0007c-.1027.1158-.2473.1861-.402.1947-.1548.0086-.3062-.0453-.421-.1492-.1148-.1038-.1835-.249-.1919-.4033-.0084-.1541.0441-.3057.1465-.4214.0001-.0001.0002-.0002.0003-.0003l7.7575-8.8022h-27.50996c-.306848.0222-.592635-.2233-.620963-.5285-.028447-.3064.20932-.6024.516963-.6355.03637-.0052.07312-.0058.10957-.0017h27.50479l-7.7564-8.81183c-.0749-.08094-.1253-.18153-.1455-.28995-.0205-.10971-.0092-.22307.0326-.32658.0418-.10353.1123-.19304.2035-.25758.0907-.06417.198-.10088.309-.10557zm.0839.45124c-.0193-.00823-.04-.01185-.0608-.01067l-.004.00024c-.0261.001-.0515.00954-.0732.0249-.0218.01539-.039.037-.0493.06248-.0102.02549-.0131.05356-.008.08075.0051.02718.0177.05204.0362.0717l.0024.00258 8.4057 9.54949h-28.51326l-.01587-.0026-.00557.0009-.00729.0007c-.06458.0061-.132695.0857-.126146.1562.00652.0702.087516.1352.151836.1291l.01037-.001h28.50633l-8.4038 9.5356-.0005.0005c-.0252.0284-.0385.0662-.0364.105.0021.0389.0194.0748.0474.1001.0278.0252.064.0379.1005.0359s.0711-.0186.0962-.0467c.0001-.0001-.0001.0001 0 0l8.6073-9.7801.0015-.0016c.0233-.026.0365-.0602.0365-.096 0-.0359-.0132-.0701-.0365-.096l-.0015-.0017-8.6095-9.78254c-.014-.01631-.0313-.02899-.0506-.03723z" fill-rule="evenodd"/><path clip-rule="evenodd" d="m21.2768 1.00083c.0881-.004728.1761.01087.2573.04554.0813.03475.1535.08767.2112.15459l.0009.00113 8.6043 9.77661.0008.0009c.0959.1072.1487.2462.1487.3899s-.0528.2827-.1487.3899l-.0008.0009-8.6061 9.7788-.0006.0006c-.1027.1158-.2472.1861-.402.1947-.1547.0086-.3062-.0453-.421-.1492-.1147-.1038-.1835-.2489-.1919-.4033-.0084-.1541.0441-.3057.1466-.4213l.0003-.0004 7.7574-8.8022h-27.50993c-.306844.0222-.592631-.2233-.620959-.5285-.028447-.3064.20932-.6023.516959-.6355.03638-.0052.07312-.0058.10957-.0017h27.50476l-7.7563-8.8118c-.075-.08093-.1254-.18153-.1456-.28994-.0204-.10971-.0091-.22307.0326-.32659.0418-.10353.1124-.19304.2036-.25758.0907-.06417.1979-.10088.3089-.10556zm.0839.45124c-.0192-.00824-.04-.01186-.0607-.01067l-.0041.00023c-.0261.00101-.0515.00954-.0732.02491-.0218.01538-.0389.03699-.0492.06247-.0103.0255-.0131.05356-.0081.08076.0051.02718.0178.05204.0362.07169l.0024.00258 8.4057 9.54946h-28.51323l-.01586-.0026-.00557.001-.0073.0006c-.06458.0061-.132691.0857-.126142.1562.00652.0703.087522.1352.151832.1291l.01038-.001h28.50629l-8.4038 9.5356-.0005.0005c-.0251.0284-.0385.0662-.0363.1051.0021.0389.0194.0748.0473.1001.0279.0252.0641.0378.1006.0358.0364-.002.071-.0185.0961-.0467l8.6073-9.78.0015-.0017c.0233-.026.0365-.0602.0365-.096s-.0132-.07-.0365-.096l-.0015-.0016-8.6095-9.78261c-.014-.0163-.0313-.02899-.0506-.03722z" fill-rule="evenodd"/></g><path d="m.941598 11.3887c-.006549-.0705.061562-.1501.126142-.1562l.0073-.0006.00557-.001.01586.0026h28.51323l-8.4057-9.54946-.0024-.00258c-.0184-.01965-.0311-.04451-.0362-.07169-.005-.0272-.0022-.05526.0081-.08076.0103-.02548.0274-.04709.0492-.06247.0217-.01537.0471-.0239.0732-.02491l.0041-.00023c.0207-.00119.0415.00243.0607.01067.0193.00823.0366.02092.0506.03722l8.6095 9.78261.0015.0016c.0233.026.0365.0602.0365.096s-.0132.07-.0365.096l-.0015.0017-8.6073 9.78m-20.471902-9.8585-.219627.0204m.219627-.0204c.00652.0703.087522.1352.151832.1291l.01038-.001h28.50629l-8.4038 9.5356-.0005.0005c-.0251.0284-.0385.0662-.0363.1051.0021.0389.0194.0748.0473.1001.0279.0252.0641.0378.1006.0358.0364-.002.071-.0185.0961-.0467m.1206-20.20083c-.0812-.03467-.1692-.050268-.2573-.04554-.111.00468-.2182.04139-.3089.10556-.0912.06454-.1618.15405-.2036.25758-.0417.10352-.053.21688-.0326.32659.0202.10841.0706.20901.1456.28994l7.7563 8.8118h-27.50476c-.03645-.0041-.07319-.0035-.10957.0017-.307639.0332-.545406.3291-.516959.6355.028328.3052.314115.5507.620959.5285h27.50993l-7.7574 8.8022-.0003.0004c-.1025.1156-.155.2672-.1466.4213.0084.1544.0772.2995.1919.4033.1148.1039.2663.1578.421.1492.1548-.0086.2993-.0789.402-.1947l.0006-.0006 8.6061-9.7788.0008-.0009c.0959-.1072.1487-.2462.1487-.3899s-.0528-.2827-.1487-.3899l-.0008-.0009-8.6043-9.77661-.0009-.00113c-.0577-.06692-.1299-.11984-.2112-.15459z" stroke="#000"/></svg>