<svg fill="none" height="48" viewBox="0 0 69 48" width="69" xmlns="http://www.w3.org/2000/svg"><g fill="#000"><path d="m47.618 1.00131c-.1562.00604-.3073.05742-.4354.14801-.128.09058-.2274.21652-.2864.36273s-.075.30649-.0461.46165.1015.29861.209.41318l18.3167 20.80912h-63.48354c-.05066-.0082-.10177-.0082-.15243 0-.42566.0402-.776636.4682-.73673.898.0399.4299.4635.7844.88916.7441h63.48354l-18.3167 20.7835c-.1448.1633-.2195.378-.2076.597.0119.2189.1095.4241.2712.5704s.3743.2218.5911.2098c.2167-.0121.4199-.1106.5648-.2739l19.5106-22.169c.1357-.1511.2108-.3477.2108-.5517 0-.2039-.0751-.4006-.2108-.5516l-19.5106-22.16904c-.0814-.09493-.1833-.16973-.2978-.21866s-.2386-.070685-.3628-.06359z"/><path clip-rule="evenodd" d="m47.5941.501871c.1998-.010708.3992.024649.5831.103245.1843.078751.348.198718.4787.350388.0007.000857.0015.001715.0022.002574l19.5031 22.160422c.0006.0007.0012.0013.0018.002.2173.243.337.558.337.8837 0 .3258-.1196.6407-.337.8838-.0006.0006-.0012.0013-.0018.0019l-19.5073 22.1653-.0013.0015c-.2328.2625-.5604.4218-.9111.4413-.3508.0195-.6941-.1027-.9543-.3382-.2601-.2353-.4159-.5643-.435-.914-.019-.3494.1-.693.3322-.9552.0002-.0003.0004-.0005.0007-.0008l17.5836-19.9517h-62.35595c-.69552.0504-1.343302-.5061-1.407512-1.1979-.06448-.6945.474458-1.3653 1.171772-1.4404.08245-.0119.16574-.0132.24837-.0038h62.34422l-17.5812-19.97352c-.1698-.18346-.2841-.41148-.3298-.65721-.0464-.24868-.0208-.50563.0739-.74026.0946-.23468.2546-.437566.4614-.583861.2055-.145444.4485-.228662.7002-.239278zm.1902 1.022809c-.0436-.01865-.0907-.02687-.1377-.02418l-.0093.00053c-.059.00228-.1166.02162-.1659.05645-.0493.03487-.0882.08386-.1115.14161-.0233.05779-.0297.12141-.0182.18305.0114.06161.0401.11796.082.16251l.0055.00585 19.0528 21.6455h-64.63l-.03596-.0059-.01262.0021-.01654.0016c-.14638.0138-.30077.1941-.28592.354.01477.1592.19837.3064.34415.2926l.02352-.0023h64.61427l-19.0486 21.6141-.0011.0012c-.0571.0643-.0872.1499-.0824.238s.044.1696.1073.2269c.0632.0571.1452.0858.228.0812.0825-.0046.161-.042.2179-.1058.0001-.0002-.0002.0002 0 0l19.5099-22.1681.0033-.0038c.0528-.0588.0828-.1363.0828-.2176 0-.0812-.03-.1587-.0828-.2176l-.0033-.0037-19.5149-22.17384c-.0317-.03696-.071-.06571-.1147-.08438z" fill-rule="evenodd"/></g></svg>