<svg xmlns="http://www.w3.org/2000/svg" width="612.018" height="345.975" viewBox="-0.006 179.762 612.018 345.975"><path fill="blue" d="M611.97 351.61c-.013-.256-.037-.5-.056-.75-.012-.13-.02-.258-.03-.38-.02-.185-.05-.368-.073-.545-.023-.214-.048-.428-.085-.637-.006-.024-.013-.055-.013-.08-.752-4.73-2.98-9.167-6.395-12.583-19.523-23.14-42.75-43.733-66.366-62.54-50.862-40.527-109.032-74.432-173.243-88.08-37.112-7.883-74.456-8.22-111.764-1.548-33.936 6.07-66.64 18.69-97.253 34.333-47.914 24.48-91.67 58.232-129.8 96.072-7.055 7-14.075 14.15-20.49 21.756-8.542 10.123-8.542 22.112 0 32.234 19.524 23.14 42.75 43.728 66.366 62.54 50.87 40.526 109.04 74.426 173.25 88.073 37.112 7.89 74.462 8.225 111.77 1.555 33.93-6.07 66.635-18.69 97.253-34.334 47.913-24.485 91.67-58.23 129.8-96.07 7.055-7.008 14.074-14.15 20.488-21.758 3.415-3.42 5.643-7.852 6.396-12.59 0-.023.006-.054.012-.08.037-.213.062-.42.086-.635.024-.178.056-.36.073-.545.013-.128.02-.25.03-.38.02-.244.044-.488.056-.746.02-.38.03-.76.03-1.145.002-.383-.023-.757-.04-1.136zM306 470.505c-65.037 0-117.755-52.717-117.755-117.755 0-65.032 52.718-117.756 117.755-117.756s117.755 52.718 117.755 117.755c0 65.037-52.718 117.754-117.755 117.754z"/><circle fill="blue" cx="306" cy="352.749" r="38.978"/></svg>