<?xml version="1.0" encoding="utf-8"?>
<!-- Generator: Adobe Illustrator 16.0.0, SVG Export Plug-In . SVG Version: 6.00 Build 0)  -->
<!DOCTYPE svg PUBLIC "-//W3C//DTD SVG 1.1//EN" "http://www.w3.org/Graphics/SVG/1.1/DTD/svg11.dtd">
<svg version="1.1" id="Layer_1" xmlns="http://www.w3.org/2000/svg" xmlns:xlink="http://www.w3.org/1999/xlink" x="0px" y="0px"
	 width="70px" height="70px" viewBox="0 0 70 70" enable-background="new 0 0 70 70" xml:space="preserve">
<g id="Layer_1_1_">
	<g id="Layer_2_1_" opacity="0.3">
		<rect x="69" fill="#578771" width="1" height="70"/>
		<rect y="69" fill="#578771" width="70" height="1"/>
	</g>
</g>
<g id="Layer_2">
	<g id="Layer_1_2_" display="none">
		
			<image display="inline" overflow="visible" enable-background="new    " width="71" height="71" xlink:href="29242FE6569DBDC0.jpeg"  transform="matrix(0.9859 0 0 0.9859 -4.882812e-04 0)">
		</image>
	</g>
	<g id="Layer_2_2_" opacity="0.4">
		<polygon fill="#578771" points="70,34 35,34 35,0 34,0 34,34 0,34 0,35 34,35 34,70 35,70 35,35 70,35 		"/>
		<g>
			<rect x="69" fill="#578771" width="1" height="2"/>
		</g>
		<polygon fill="#578771" points="69,67 69,69 67,69 67,70 70,70 70,67 		"/>
		<g>
			<rect y="69" fill="#578771" width="2" height="1"/>
		</g>
	</g>
</g>
</svg>
