<?xml version="1.0" encoding="utf-8"?>
<!-- Generator: Adobe Illustrator 16.0.0, SVG Export Plug-In . SVG Version: 6.00 Build 0)  -->
<!DOCTYPE svg PUBLIC "-//W3C//DTD SVG 1.1//EN" "http://www.w3.org/Graphics/SVG/1.1/DTD/svg11.dtd">
<svg version="1.1" id="Layer_1" xmlns="http://www.w3.org/2000/svg" xmlns:xlink="http://www.w3.org/1999/xlink" x="0px" y="0px"
	 width="200px" height="15.684px" viewBox="0 0 200 15.684" enable-background="new 0 0 200 15.684" xml:space="preserve">
<g>
	<path fill="#333333" d="M2.123,0.426l4.01,4.813l4.01-4.813h2.106v12.205h-2.36V4.06h-0.07L6.29,8.358H5.958L2.429,4.06h-0.07
		v8.571H0V0.426H2.123z"/>
	<path fill="#333333" d="M21.031,0.426l5.39,12.205h-2.49L22.665,9.66H17.24l-1.18,2.971h-2.472L18.62,0.426H21.031z M17.956,7.87
		h3.94l-2.062-4.832L17.956,7.87z"/>
	<path fill="#333333" d="M32.872,0.426c1.27,0,2.399,0.258,3.39,0.777c0.99,0.519,1.759,1.246,2.307,2.184
		C39.116,4.326,39.39,5.38,39.39,6.55c0,1.193-0.276,2.253-0.825,3.176c-0.551,0.924-1.333,1.639-2.346,2.146
		c-1.013,0.506-2.175,0.761-3.486,0.761h-4.971V0.426H32.872z M32.627,10.787c1.304,0,2.351-0.393,3.141-1.177
		c0.789-0.782,1.183-1.809,1.183-3.077c0-1.316-0.397-2.356-1.193-3.12c-0.793-0.763-1.865-1.145-3.21-1.145H30.12v8.519H32.627z"/>
	<path fill="#333333" d="M49.395,0.426V2.27h-5.53v3.206h5.294v1.843h-5.294v3.47h5.652v1.844h-8.011V0.426H49.395z"/>
	<path fill="#333333" d="M81.904,0.269c0.694,0,1.372,0.078,2.036,0.235s1.381,0.426,2.149,0.804v2.22
		c-0.751-0.432-1.446-0.741-2.084-0.936c-0.638-0.191-1.303-0.287-1.996-0.287c-0.868,0-1.651,0.178-2.35,0.537
		c-0.699,0.357-1.242,0.863-1.63,1.516c-0.387,0.652-0.58,1.377-0.58,2.177c0,0.814,0.191,1.545,0.577,2.19
		c0.384,0.647,0.926,1.146,1.625,1.499c0.698,0.354,1.485,0.528,2.358,0.528c0.669,0,1.309-0.097,1.918-0.287
		c0.608-0.193,1.375-0.539,2.302-1.04v2.218c-0.792,0.414-1.521,0.708-2.185,0.882c-0.664,0.177-1.438,0.264-2.324,0.264
		c-1.287,0-2.437-0.257-3.451-0.77c-1.013-0.512-1.81-1.251-2.39-2.216C75.3,8.841,75.01,7.784,75.01,6.637
		c0-1.229,0.299-2.332,0.896-3.311c0.597-0.979,1.417-1.732,2.464-2.264C79.416,0.534,80.594,0.269,81.904,0.269z"/>
	<path fill="#333333" d="M90.852,0.426v5.137h6.334V0.426h2.358v12.205h-2.358V7.477h-6.334v5.154h-2.359V0.426H90.852z"/>
	<path fill="#333333" d="M106.656,0.426c1.148,0,2.082,0.317,2.805,0.952s1.083,1.462,1.083,2.48c0,0.692-0.179,1.298-0.537,1.812
		s-0.891,0.922-1.595,1.218c0.39,0.211,0.736,0.497,1.04,0.856c0.303,0.36,0.678,0.971,1.127,1.827
		c0.745,1.479,1.298,2.497,1.659,3.058h-2.629c-0.18-0.27-0.426-0.696-0.734-1.284c-0.675-1.299-1.17-2.175-1.484-2.626
		c-0.313-0.452-0.617-0.771-0.908-0.962c-0.293-0.188-0.627-0.282-1.006-0.282h-0.855v5.154h-2.359V0.426H106.656z M106.123,5.633
		c0.618,0,1.104-0.153,1.455-0.464c0.352-0.31,0.527-0.729,0.527-1.267c0-0.56-0.174-0.978-0.523-1.254
		c-0.35-0.275-0.848-0.414-1.494-0.414h-1.467v3.397L106.123,5.633L106.123,5.633z"/>
	<path fill="#333333" d="M116.012,0.426v12.205h-2.359V0.426H116.012z"/>
	<path fill="#333333" d="M122.396,0.269c1.188,0,2.332,0.298,3.433,0.892v2.097c-1.263-0.762-2.384-1.146-3.363-1.146
		c-0.594,0-1.059,0.116-1.394,0.347c-0.334,0.229-0.502,0.537-0.502,0.922c0,0.461,0.311,0.886,0.935,1.275
		c0.175,0.116,0.847,0.441,2.019,0.979c1,0.472,1.724,0.995,2.166,1.571c0.442,0.577,0.666,1.271,0.666,2.08
		c0,1.049-0.379,1.896-1.131,2.538c-0.754,0.644-1.731,0.965-2.933,0.965c-0.78,0-1.452-0.087-2.013-0.258
		c-0.562-0.173-1.192-0.469-1.893-0.888V9.318c1.307,1.084,2.534,1.627,3.688,1.627c0.575,0,1.042-0.127,1.397-0.377
		c0.354-0.25,0.531-0.582,0.531-0.994c0-0.565-0.309-1.026-0.926-1.382c-0.512-0.279-1.174-0.613-1.982-1.005
		c-0.962-0.437-1.68-0.946-2.154-1.527c-0.475-0.583-0.711-1.259-0.711-2.027c0-1.026,0.381-1.842,1.145-2.45
		C120.137,0.573,121.145,0.269,122.396,0.269z"/>
	<path fill="#333333" d="M138.139,0.426c1.27,0,2.398,0.258,3.389,0.777c0.99,0.519,1.76,1.246,2.307,2.184
		c0.547,0.939,0.82,1.993,0.82,3.163c0,1.193-0.274,2.253-0.824,3.176c-0.551,0.924-1.333,1.639-2.346,2.146
		c-1.014,0.506-2.176,0.761-3.486,0.761h-4.971V0.426H138.139z M137.895,10.787c1.304,0,2.351-0.393,3.141-1.177
		c0.788-0.782,1.183-1.809,1.183-3.077c0-1.316-0.397-2.356-1.192-3.12c-0.795-0.763-1.865-1.145-3.211-1.145h-2.428v8.519H137.895z
		"/>
	<path fill="#333333" d="M151.167,0.426c1.147,0,2.082,0.317,2.804,0.952c0.723,0.635,1.084,1.462,1.084,2.48
		c0,0.692-0.18,1.298-0.537,1.812c-0.359,0.515-0.892,0.922-1.596,1.218c0.391,0.211,0.737,0.497,1.04,0.856
		c0.302,0.36,0.679,0.971,1.126,1.827c0.746,1.479,1.299,2.497,1.66,3.058h-2.629c-0.182-0.27-0.426-0.696-0.734-1.284
		c-0.676-1.299-1.171-2.175-1.484-2.626c-0.315-0.452-0.617-0.771-0.909-0.962c-0.291-0.188-0.625-0.282-1.005-0.282h-0.855v5.154
		h-2.357V0.426H151.167z M150.634,5.633c0.618,0,1.103-0.153,1.456-0.464c0.352-0.31,0.528-0.729,0.528-1.267
		c0-0.56-0.175-0.978-0.524-1.254c-0.35-0.275-0.848-0.414-1.494-0.414h-1.468v3.397L150.634,5.633L150.634,5.633z"/>
	<path fill="#333333" d="M163.957,0.269c1.264,0,2.4,0.263,3.412,0.781c1.01,0.521,1.816,1.273,2.415,2.254
		c0.6,0.981,0.899,2.058,0.899,3.229c0,1.141-0.291,2.199-0.877,3.175s-1.39,1.732-2.412,2.271
		c-1.021,0.539-2.174,0.809-3.455,0.809c-1.264,0-2.412-0.273-3.446-0.82c-1.033-0.547-1.839-1.301-2.415-2.259
		c-0.577-0.958-0.866-2.019-0.866-3.175c0-1.119,0.289-2.171,0.866-3.154c0.576-0.984,1.371-1.749,2.385-2.294
		C161.477,0.541,162.641,0.269,163.957,0.269z M159.65,6.533c0,0.809,0.184,1.536,0.551,2.184s0.878,1.147,1.533,1.503
		c0.656,0.354,1.396,0.532,2.224,0.532c1.252,0,2.28-0.395,3.088-1.179c0.808-0.787,1.21-1.802,1.21-3.04
		c0-0.812-0.181-1.539-0.546-2.188c-0.364-0.649-0.876-1.151-1.538-1.508c-0.66-0.354-1.404-0.532-2.232-0.532
		c-0.826,0-1.57,0.178-2.231,0.537c-0.661,0.357-1.169,0.859-1.524,1.503C159.828,4.988,159.65,5.717,159.65,6.533z"/>
	<path fill="#333333" d="M178.909,0.269c1.264,0,2.401,0.263,3.411,0.781c1.011,0.521,1.816,1.273,2.416,2.254
		c0.6,0.981,0.9,2.058,0.9,3.229c0,1.141-0.293,2.199-0.88,3.175c-0.584,0.976-1.388,1.732-2.411,2.271
		c-1.021,0.539-2.174,0.809-3.455,0.809c-1.263,0-2.412-0.273-3.447-0.82c-1.032-0.547-1.838-1.301-2.414-2.259
		c-0.577-0.958-0.865-2.019-0.865-3.175c0-1.119,0.288-2.171,0.865-3.154c0.576-0.984,1.371-1.749,2.385-2.294
		C176.428,0.541,177.593,0.269,178.909,0.269z M174.604,6.533c0,0.809,0.183,1.536,0.549,2.184c0.367,0.646,0.879,1.147,1.533,1.503
		c0.655,0.354,1.397,0.532,2.224,0.532c1.252,0,2.282-0.395,3.088-1.179c0.808-0.787,1.21-1.802,1.21-3.04
		c0-0.812-0.182-1.539-0.546-2.188s-0.876-1.151-1.538-1.508c-0.661-0.354-1.405-0.532-2.232-0.532c-0.826,0-1.57,0.178-2.23,0.537
		c-0.662,0.357-1.17,0.859-1.523,1.503C174.779,4.988,174.604,5.717,174.604,6.533z"/>
	<path fill="#333333" d="M189.875,0.426l4.01,4.813l4.01-4.813H200v12.205h-2.359V4.06h-0.07l-3.528,4.299h-0.332l-3.528-4.299
		h-0.07v8.571h-2.359V0.426H189.875z"/>
</g>
<g>
	<path fill="#333333" d="M57.573,6.722l0.033,0.019c0.13-0.197,0.29-0.403,0.479-0.62c0.189-0.218,0.398-0.412,0.626-0.586
		c0.228-0.177,0.474-0.323,0.74-0.442c0.265-0.117,0.544-0.176,0.837-0.176c0.336,0,0.631,0.059,0.887,0.176
		c0.255,0.119,0.469,0.274,0.642,0.465c0.174,0.19,0.304,0.408,0.391,0.656s0.13,0.506,0.13,0.771c0,0.413-0.081,0.822-0.243,1.229
		c-0.163,0.406-0.38,0.793-0.651,1.158s-0.581,0.705-0.927,1.02c-0.348,0.315-0.71,0.585-1.09,0.812
		c-0.38,0.227-0.757,0.403-1.131,0.532c-0.374,0.13-0.724,0.193-1.049,0.193c-0.206,0-0.42-0.035-0.642-0.101
		c-0.223-0.066-0.426-0.173-0.61-0.316c-0.185-0.145-0.336-0.33-0.455-0.558c-0.12-0.227-0.18-0.503-0.18-0.834
		c0-0.205,0.035-0.445,0.106-0.718c0.071-0.272,0.148-0.515,0.236-0.72l3.171-8.468h-1.431L57.508,0h2.603L57.573,6.722z
		 M57.281,11.729c0.326,0,0.653-0.093,0.984-0.277c0.331-0.186,0.645-0.434,0.943-0.741c0.298-0.311,0.578-0.658,0.838-1.051
		c0.261-0.393,0.485-0.797,0.675-1.214c0.19-0.418,0.339-0.829,0.448-1.236c0.108-0.407,0.162-0.773,0.162-1.104
		c0-0.318-0.097-0.562-0.292-0.727c-0.195-0.164-0.461-0.247-0.797-0.247c-0.304,0-0.613,0.09-0.927,0.271
		c-0.314,0.182-0.618,0.417-0.911,0.711s-0.57,0.634-0.83,1.02c-0.261,0.388-0.485,0.786-0.675,1.198s-0.341,0.82-0.456,1.228
		c-0.114,0.407-0.17,0.786-0.17,1.137C56.272,11.383,56.608,11.729,57.281,11.729z"/>
	<path fill="#333333" d="M63.39,6.305c0.065-0.227,0.16-0.442,0.284-0.647c0.124-0.206,0.282-0.383,0.472-0.525
		c0.19-0.146,0.432-0.216,0.724-0.216c0.346,0,0.637,0.083,0.87,0.253c0.233,0.171,0.417,0.386,0.554,0.643
		c0.135,0.257,0.232,0.536,0.292,0.834c0.06,0.299,0.09,0.576,0.09,0.835c0,0.681-0.041,1.265-0.122,1.754
		c-0.083,0.489-0.16,0.899-0.236,1.229h0.032l2.489-4.265c0.087-0.155,0.177-0.312,0.269-0.466c0.092-0.153,0.198-0.291,0.317-0.408
		c0.119-0.119,0.257-0.218,0.415-0.293c0.157-0.078,0.339-0.115,0.544-0.115c0.261,0,0.442,0.062,0.545,0.185
		s0.155,0.264,0.155,0.416c0,0.197-0.065,0.356-0.195,0.48c-0.13,0.123-0.304,0.186-0.521,0.186c-0.206,0-0.309-0.094-0.309-0.278
		c0-0.112,0.03-0.197,0.09-0.255c0.059-0.058,0.09-0.133,0.09-0.225c0-0.154-0.077-0.223-0.228-0.201
		c-0.13,0.012-0.271,0.102-0.423,0.271s-0.347,0.455-0.586,0.856l-2.96,5.1l-0.943,1.669c-0.184,0.331-0.377,0.648-0.578,0.958
		c-0.201,0.309-0.414,0.582-0.643,0.818c-0.227,0.237-0.466,0.428-0.716,0.572s-0.509,0.215-0.78,0.215
		c-0.412,0-0.745-0.096-1-0.286C61.128,15.209,61,14.95,61,14.62c0-0.27,0.082-0.445,0.245-0.533
		c0.162-0.088,0.336-0.132,0.52-0.132c0.141,0,0.255,0.034,0.342,0.101c0.086,0.067,0.129,0.162,0.129,0.286
		c0,0.093-0.008,0.163-0.024,0.208c-0.016,0.047-0.035,0.093-0.057,0.141c-0.021,0.046-0.041,0.097-0.057,0.153
		c-0.016,0.057-0.024,0.138-0.024,0.24c0,0.111,0.052,0.205,0.154,0.276c0.104,0.072,0.236,0.109,0.398,0.109
		c0.304,0,0.621-0.187,0.952-0.557c0.33-0.372,0.634-0.858,0.91-1.461c0.277-0.604,0.504-1.293,0.684-2.07
		c0.179-0.778,0.268-1.573,0.268-2.388c0-0.805-0.022-1.458-0.065-1.962c-0.043-0.505-0.1-0.898-0.17-1.184
		c-0.071-0.282-0.15-0.473-0.236-0.572c-0.087-0.097-0.179-0.146-0.277-0.146c-0.195,0-0.363,0.069-0.504,0.208
		c-0.142,0.141-0.261,0.307-0.358,0.502c-0.098,0.196-0.176,0.396-0.236,0.604c-0.06,0.205-0.106,0.376-0.138,0.511l-0.228-0.062
		C63.271,6.727,63.325,6.532,63.39,6.305z"/>
</g>
</svg>
