<?xml version="1.0" encoding="utf-8"?>
<!-- Generator: Adobe Illustrator 16.0.0, SVG Export Plug-In . SVG Version: 6.00 Build 0)  -->
<!DOCTYPE svg PUBLIC "-//W3C//DTD SVG 1.1//EN" "http://www.w3.org/Graphics/SVG/1.1/DTD/svg11.dtd">
<svg version="1.1" id="Layer_1" xmlns="http://www.w3.org/2000/svg" xmlns:xlink="http://www.w3.org/1999/xlink" x="0px" y="0px"
	 width="400px" height="400px" viewBox="-105.5 596.5 400 400" enable-background="new -105.5 596.5 400 400" xml:space="preserve">
<title>Artboard 1</title>
<desc>Created with Sketch.</desc>
<rect x="-105.5" y="596.5" fill="#82D4EB" width="400" height="400"/>
<g>
	<g>
		<path fill="#050505" d="M17.438,752.623c-9.283,16.212-2.063,34.359-2.346,51.704c-0.136,8.334-3.247,15.479,0.487,23.59
			c3.217,6.987,9.898,13.066,9.35,21.253c-0.229,3.414,5.073,3.392,5.3,0c0.483-7.21-3.509-12.809-7.185-18.62
			c-2.202-3.479-3.963-7.046-4.264-11.211c-0.277-3.837,0.847-7.735,1.343-11.52c2.282-17.441-7.523-36.078,1.892-52.521
			C23.716,752.328,19.136,749.659,17.438,752.623L17.438,752.623z"/>
	</g>
	<g>
		<path fill="#050505" d="M39.493,825.399c-1.318,7.626-3.948,14.905-6.732,22.101c-2.146,5.546-4.81,11.212-5.412,17.191
			c-1.667,16.55,26.328,3.67,32.09,1.267c3.106-1.297,1.745-6.427-1.409-5.112c-6.952,2.901-14.945,6.806-22.646,6.932
			c-1.507,0.024-2.279-0.26-2.661-0.991c-0.334-0.642,0.025-2.953,0.329-4.253c1.247-5.335,3.604-10.441,5.557-15.538
			c2.517-6.564,4.794-13.242,5.996-20.187C45.182,823.467,40.075,822.036,39.493,825.399L39.493,825.399z"/>
	</g>
	<g>
		<path fill="#050505" d="M41.361,876.162c0,2.944,0,5.889,0,8.833c0,3.418,5.3,3.418,5.3,0c0-2.944,0-5.889,0-8.833
			C46.662,872.743,41.361,872.743,41.361,876.162L41.361,876.162z"/>
	</g>
	<g>
		<path fill="#050505" d="M47.281,897.13c0.73-1.271,1.38-2.579,2.059-3.877c0.825-1.574,1.02-0.774,2.613,0.488
			c1.111,0.88,2.664,1.131,3.748,0c6.766-7.066,16.332,0.944,23.922,2.644c3.33,0.746,4.744-4.364,1.409-5.111
			c-10.093-2.259-20.059-10.699-29.08-1.281c1.25,0,2.499,0,3.748,0c-2.142-1.694-5.229-4.148-8.108-2.531
			c-2.554,1.434-3.508,4.59-4.889,6.994C40.999,897.424,45.579,900.091,47.281,897.13L47.281,897.13z"/>
	</g>
	<g>
		<path fill="#050505" d="M77.678,895.792c-0.248,4.223-6.438,7.867-9.63,9.576c-3.248,1.74-11.406,4.587-14.292,0.834
			c-2.41-3.134,4.633-2.577,6.549-2.577c6.233,0,12.246-3.229,16.99-6.94c2.69-2.104-1.089-5.828-3.748-3.748
			c-3.557,2.784-7.24,4.293-11.659,5.121c-3.407,0.64-6.932-0.071-10.201,1.397c-5.004,2.247-4.609,7.967-0.887,11.25
			c5.292,4.668,14.411,1.974,19.923-0.76c5.217-2.587,11.884-7.821,12.255-14.153C83.178,892.376,77.877,892.396,77.678,895.792
			L77.678,895.792z"/>
	</g>
	<g>
		<path fill="#050505" d="M61.087,919.626c-1.722,4.395-1.87,10.229,0.714,14.335c3.077,4.891,8.462,2.335,11.568-0.96
			c-1.477-0.39-2.954-0.779-4.43-1.169c0.513,1.639,1.189,3.172,2.342,4.474c0.901,1.018,2.124,1.867,2.833,3.03
			c1.021,1.676,3.575,1.759,4.576,0c1.221-2.143,2.831-4.023,3.212-6.521c-1.704,0-3.408,0-5.111,0
			c0.944,2.272,3.562,4.535,3.925,6.869c0.312,1.995,3.167,2.512,4.43,1.17c3.847-4.089,5.969-9.724,3.62-15.144
			c-2.329-5.376-7.733-7.859-13.346-8.029c-1.208-0.036-2.205,0.842-2.556,1.945c-1.817,5.714-1.51,12.034,3.136,16.307
			c4.136,3.805,10.34,4.777,15.738,4.103c5.711-0.714,11.159-3.228,14.542-8.015c3.896-5.512,2.1-12.6-1.089-17.936
			c-0.799-1.337-3.074-1.91-4.162-0.535c-7.331,9.253-0.988,20.402,9.021,24.06c1.082,0.395,2.458-0.243,2.993-1.218
			c4.293-7.826,6.826-22.438-4.528-25.487c-1.857-0.499-3.927,1.303-3.26,3.26c2.443,7.161,9.283,11.763,16.285,6.982
			c6.83-4.663,6.604-13.364,1.886-19.375c-1.493-1.902-4.525-0.241-4.524,1.873c0.001,2.021-0.315,4.722,0.792,6.557
			c1.126,1.863,3.222,2.85,4.891,4.151c1.284,0.999,3.275,1.111,4.163-0.537c4.403-8.188,1.702-16.04-7.473-18.615
			c-1.47-0.413-2.775,0.498-3.261,1.851c-2.211,6.172-0.664,12.604,3.211,17.747c0.803,1.065,2.354,1.862,3.626,0.951
			c10.965-7.866,8.277-25.776-1.963-33.042c-1.505-1.067-3.345,0.114-3.893,1.584c-4.314,11.585,1.301,26.988,13.629,30.742
			c1.067,0.326,2.489-0.181,2.993-1.218c6.135-12.638,9.14-31.892,0-43.898c-1.316-1.729-4.186-1.788-4.843,0.633
			c-2.746,10.105-2.632,33.661,12.677,32.876c15.553-0.795,13.826-28.499,2.994-34.46c-1.425-0.784-3.528-0.139-3.894,1.584
			c-1.609,7.601,0.504,16.531,7.75,20.535c2.369,1.311,5.485,1.62,7.655-0.237c2.732-2.338,2.247-6.396,1.485-9.502
			c-1.297,0.998-2.595,1.995-3.893,2.993c6.83,4.524,14.002,1.979,15.049-6.368c0.963-7.675-4.764-15.212-12.434-16.06
			c-4.812-0.532-11.541,0.884-14.919,4.522c-3.04,3.273-1.487,8.242,1.89,10.57c4.714,3.251,8.584-2.235,10.78-5.96
			c3.733-6.332,2.166-13.465-3.044-18.35c-0.893-0.839-2.133-1-3.211-0.414c-6.578,3.567-10.214,10.322-8.089,17.716
			c0.318,1.106,1.373,1.983,2.556,1.944c16.589-0.539,22.51-27.571,11.688-37.896c-1.021-0.973-2.739-1.068-3.747,0
			c-6.57,6.974-7.862,17.354-3.359,25.787c0.562,1.052,1.876,1.51,2.994,1.218c9.794-2.561,13.31-14.082,13.828-23.031
			c0.405-7.01-1.746-19.629-11.273-18.834c-11.509,0.959-14.102,14.684-13.478,23.913c0.63,9.342,6.09,25.024,18.299,22.745
			c9.88-1.845,20.586-15.206,11.461-23.945c-1.201-1.149-3.328-0.995-4.162,0.536c-4.408,8.104-5.286,18.311,0,26.231
			c0.872,1.308,2.239,1.561,3.625,0.952c5.882-2.581,8.06-7.934,8.183-14.067c0.059-2.882-3.465-3.287-4.939-1.338
			c-3.393,4.489-5.164,8.364-5.269,14.098c1.118-0.852,2.236-1.703,3.355-2.556c-9.233-3.777-18.319-2.514-25.955,3.902
			c-7.232,6.077-11.594,15.352-15.319,23.816c1.526,0,3.051,0,4.577,0c-3.692-4.861-8.374-9.735-14.74-10.553
			c-4.347-0.559-8.492,1.287-11.367,4.521c-5.473,6.152-5.758,16.897,2.897,20.171c1.815,0.687,5.571,1.391,7.091-0.13
			c1.836-1.836,2.976-5.338,3.819-7.761c1.064-3.056,1.31-6.935-1.601-9.033c-5.176-3.729-13.486,2.317-17.142,5.71
			c-2.74,2.543-5.241,6.048-5.241,9.929c0.003,4.883,4.651,7.499,8.752,8.707c2.497,0.736,4.555-2.624,2.579-4.429
			c-3.544-3.238-8.077-4.343-11.766-0.684c-3.853,3.822-3.244,10.203-1.231,14.691c0.362,0.805,1.441,1.343,2.289,1.313
			c1.364-0.047,2.587-0.07,3.619-1.067c0.832-0.806,1.04-2.222,0.414-3.212c-0.323-0.511-2.088-2.579-1.478-1.039
			c-1.246-3.137-6.373-1.771-5.112,1.409c0.288,0.726,0.574,1.261,1.134,1.813c0.377,0.371,1.711,1.812,0.878,0.492
			c0.138-1.071,0.276-2.141,0.415-3.212c0.043-0.161,0.086-0.323,0.129-0.485c0.762,0.438,1.525,0.875,2.289,1.313
			c-1.577-3.515-0.541-12.348,4.672-7.586c0.858-1.477,1.718-2.953,2.578-4.43c-3.283-0.968-5.57-2.333-4.5-5.387
			c1.047-2.989,4.245-5.436,6.797-7.08c1.334-0.86,2.75-1.591,4.26-2.084c0.643-0.21,1.409-0.362,1.776-0.388
			c0.656-0.047,1.003,0.115,0.846,0.038c0.189,0.094,0.062,0.099,0.024-0.01c0.082,0.238,0.106,0.897-0.007,1.517
			c-0.5,2.766-1.979,5.336-3.354,7.741c0.762-0.438,1.525-0.875,2.288-1.312c-2.72,0.076-5.604-0.457-6.541-3.351
			c-0.812-2.505,0.151-5.289,1.462-7.432c5.197-8.502,14.285-1.572,18.495,3.973c1.049,1.382,3.682,2.035,4.577,0
			c3.293-7.487,6.955-15.088,12.68-21.044c6.326-6.58,14.322-7.63,22.606-4.239c1.65,0.675,3.327-0.998,3.355-2.556
			c0.09-4.826,1.724-7.689,4.546-11.423c-1.646-0.445-3.292-0.892-4.938-1.337c-0.09,4.434-1.349,7.643-5.558,9.49
			c1.208,0.316,2.417,0.634,3.626,0.95c-4.245-6.361-3.548-14.357,0-20.881c-1.388,0.179-2.775,0.357-4.163,0.536
			c5.203,4.984-1.369,11.766-6.018,14.158c-4.782,2.461-8.849-0.618-11.266-4.67c-4.286-7.188-6.024-21.539,0.27-28.166
			c1.805-1.902,5.28-3.614,7.489-1.521c2.411,2.284,2.835,6.51,2.982,9.612c0.334,7.136-1.798,18.746-9.956,20.879
			c0.999,0.406,1.995,0.812,2.994,1.218c-3.361-6.294-2.371-14.162,2.529-19.363c-1.249,0-2.498,0-3.747,0
			c4.555,4.346,4.451,11.371,2.98,17.051c-1.331,5.138-4.936,11.603-10.921,11.797c0.851,0.648,1.703,1.297,2.556,1.946
			c-1.489-5.175,1.125-9.274,5.653-11.73c-1.071-0.138-2.141-0.277-3.211-0.415c3.654,3.428,4.542,7.446,2.214,11.929
			c-0.591,1.138-2.384,4.074-3.434,4.497c0.858-0.347-0.001-0.191-0.617-1.081c-1.946-2.816,4.279-3.857,5.87-4.275
			c2.532-0.664,5.286-0.604,7.622,0.64c3.365,1.794,5.097,6.261,4.497,9.929c-0.72,4.402-3.99,3.711-7.052,1.684
			c-2.027-1.343-4.417,0.854-3.894,2.992c0.713,2.91,0.76,5.58-2.525,3.037c-4.175-3.231-5.181-8.926-4.142-13.833
			c-1.298,0.527-2.596,1.056-3.894,1.584c6.987,3.844,9.076,24.752-1.596,24.608c-5.25-0.07-6.628-7.696-7.075-11.606
			c-0.542-4.746-0.474-9.95,0.786-14.586c-1.615,0.211-3.229,0.421-4.844,0.633c7.982,10.486,5.379,27.468,0,38.549
			c0.998-0.405,1.996-0.812,2.993-1.218c-9.7-2.954-13.199-15.438-9.928-24.223c-1.298,0.528-2.595,1.057-3.893,1.584
			c6.81,4.831,9.514,18.471,1.962,23.887c1.208,0.317,2.417,0.635,3.626,0.951c-3.104-4.119-4.462-8.682-2.678-13.662
			c-1.087,0.617-2.173,1.234-3.26,1.851c5.794,1.627,7.086,5.658,4.305,10.83c1.387-0.179,2.775-0.357,4.162-0.536
			c-1.233-0.961-2.568-1.804-3.787-2.774c-0.369-0.294-0.214,0.08-0.29-0.752c-0.104-1.135-0.054-2.296-0.054-3.434
			c-1.508,0.625-3.017,1.249-4.524,1.874c2.847,3.626,2.59,8.077-0.891,11.11c-3.713,3.236-7.194-0.275-8.421-3.874
			c-1.087,1.087-2.173,2.174-3.261,3.261c7.382,1.982,3.88,13.107,1.361,17.7c0.998-0.405,1.995-0.812,2.993-1.218
			c-5.927-2.166-11.4-9.247-6.683-15.201c-1.387-0.179-2.774-0.357-4.162-0.536c2.355,3.94,3.772,8.465,1.089,12.585
			c-2.157,3.311-6.499,4.792-10.19,5.413c-3.828,0.645-8.071-0.011-11.302-2.2c-3.871-2.621-3.478-7.616-2.235-11.522
			c-0.853,0.647-1.704,1.296-2.556,1.944c8.281,0.253,11.712,8.031,5.978,14.126c1.477,0.39,2.953,0.779,4.43,1.168
			c-0.427-2.738-2.898-4.395-3.926-6.869c-0.865-2.082-4.664-2.929-5.111,0c-0.305,1.995-1.698,3.535-2.678,5.256
			c1.525,0,3.051,0,4.576,0c-1.407-2.309-3.8-3.557-4.64-6.238c-0.577-1.84-3.014-2.672-4.429-1.17
			c-2.094,2.223-3.286,3.109-4.162-0.18c-0.698-2.623-0.233-5.558,0.739-8.037C67.447,917.849,62.319,916.481,61.087,919.626
			L61.087,919.626z"/>
	</g>
	<g>
		<path fill="#050505" d="M48.327,873.494c-0.544,1.787-2.081,3.613-2.062,5.543c0.02,2.151,1.14,3.56,2.744,4.888
			c1.132,0.937,2.63,1.068,3.748,0c1.131-1.081,2.652-1.998,3.481-3.357c1.169-1.917,1.192-4.188,1.221-6.368
			c0.046-3.442-5.091-3.382-5.3,0c-0.244,3.943,1.317,10.848,6.845,9.466c4.942-1.236,5.449-7.072,4.25-11.153
			c-0.86-2.923-5.074-2.268-5.206,0.705c-0.207,4.667,1.84,13.448,8.376,9.328c5.396-3.4,5.821-11.326,3.433-16.555
			c-0.98-2.146-4.304-1.441-4.844,0.633c-2.212,8.5,0.713,17.341,9.704,19.947c1.48,0.429,2.759-0.515,3.26-1.851
			c1.238-3.307,2.857-5.903,3.039-9.539c0.15-3.016-4.473-3.576-5.206-0.704c-0.708,2.773-1.175,5.727,0.098,8.417
			c1.071,2.266,2.981,3.986,4.51,5.938c1.19,1.521,4.103,0.682,4.429-1.169c0.41-2.328,1.218-4.796,0.859-7.176
			c-0.365-2.418-2.042-4.34-3.503-6.199c-1.304-1.661-3.896-0.542-4.43,1.169c-1.902,6.107-0.808,10.753,3.626,15.339
			c1.001,1.035,2.744,1.012,3.748,0c1.655-1.668,3.164-3.403,4.341-5.443c-1.615-0.212-3.229-0.423-4.844-0.633
			c1.064,2.748,2.777,4.953,4.193,7.502c0.93,1.674,3.675,1.778,4.577,0c2.352-4.636,4.021-8.647,2.23-13.82
			c-0.663-1.913-3.851-2.932-4.845-0.633c-2.028,4.695-3.001,13.341,4.195,14.026c6.938,0.661,7.172-7.884,5.558-12.411
			c-0.695-1.949-3.782-2.893-4.844-0.633c-3.477,7.389-1.641,14.045,6.491,16.652c3.265,1.047,4.651-4.071,1.409-5.11
			c-4.683-1.502-5.305-4.658-3.323-8.867c-1.616-0.211-3.23-0.422-4.845-0.633c0.306,0.855,1.966,5.694-0.087,5.736
			c-2.115,0.043-0.239-5.48,0.023-6.085c-1.615-0.211-3.229-0.422-4.845-0.633c1.317,3.802,0.025,6.346-1.695,9.735
			c1.526,0,3.052,0,4.577,0c-1.177-2.118-2.776-3.955-3.659-6.237c-0.79-2.041-3.607-2.776-4.844-0.633
			c-0.958,1.66-2.17,3.02-3.512,4.371c1.25,0,2.499,0,3.748,0c-3.151-3.26-3.604-5.877-2.263-10.182
			c-1.477,0.39-2.954,0.779-4.43,1.17c2.45,3.118,1.942,4.469,1.282,8.218c1.477-0.39,2.953-0.779,4.43-1.169
			c-2.591-3.31-4.395-4.696-3.245-9.199c-1.736-0.235-3.471-0.471-5.206-0.705c-0.149,2.987-1.826,5.396-2.85,8.129
			c1.087-0.616,2.174-1.233,3.26-1.851c-6.169-1.788-7.471-7.782-6.001-13.427c-1.615,0.211-3.229,0.422-4.844,0.633
			c1.295,2.836,0.852,5.964-0.82,8.524c-0.457,0.698-1.4,0.76-0.718,1.106c-0.564-0.288-0.438-4.076-0.394-5.079
			c-1.735,0.235-3.471,0.471-5.206,0.705c0.295,1.003,0.933,4.075-0.168,4.536c-0.383,0.161-0.567-3.42-0.515-4.259
			c-1.767,0-3.533,0-5.3,0c-0.046,3.471-0.792,3.725-3.15,5.979c1.25,0,2.499,0,3.748,0c-1.207-1-1.245-0.844-0.552-2.172
			c0.517-0.992,0.908-2.034,1.233-3.102C54.437,871.626,49.32,870.235,48.327,873.494L48.327,873.494z"/>
	</g>
	<g>
		<path fill="#050505" d="M175.242,797.639c0.066-4.638,1.278-11.938,7.284-11.868c5.653,0.062,8.657,7.139,9.256,11.768
			c0.933,7.215-1.384,15.563-3.689,22.355c-2.306,6.8-6.545,13.251-14.52,12.394c-3.397-0.363-3.362,4.94,0,5.301
			c9.871,1.06,15.769-6.45,19.075-14.771c3.431-8.63,5.928-19.836,3.797-29.007c-1.587-6.827-7.299-13.664-14.847-13.324
			c-8.687,0.39-11.554,9.944-11.658,17.153C169.893,801.059,175.193,801.055,175.242,797.639L175.242,797.639z"/>
	</g>
	<g>
		<path fill="#050505" d="M175.626,806.385c3.943,4.265,3.46,9.483,0,13.92c-2.076,2.659,1.647,6.439,3.748,3.747
			c5.276-6.762,6.064-14.856,0-21.415C177.049,800.122,173.31,803.88,175.626,806.385L175.626,806.385z"/>
	</g>
	<g>
		<path fill="#050505" d="M21.436,742.969c-6.097-0.124-12.413-1.966-18.372,0.094c-4.312,1.491-8.363,4.628-10.324,8.806
			c-1.632,3.477-1.469,7.721,1.14,10.69c3.414,3.885,8.938,4.547,13.815,4.358c3.406-0.131,3.419-5.432,0-5.3
			c-5.373,0.207-13.766-1.721-9.531-8.646c4.974-8.133,15.622-4.857,23.271-4.702C24.856,748.338,24.849,743.037,21.436,742.969
			L21.436,742.969z"/>
	</g>
	<g>
		<path fill="#050505" d="M88.18,724.712c5.925,0.157,11.385,2.703,17.062,4.129c5.423,1.361,10.675,0.97,15.684-1.547
			c-1.298-0.526-2.595-1.055-3.894-1.583c1.447,4.784-0.217,7.972-5.019,9.499c-2.295,0.73-2.756,4.652,0,5.111
			c5.571,0.93,11.145,1.853,16.686,2.945c-0.39-1.478-0.779-2.953-1.169-4.43c-5.377,6.473-16.025,13.495-13.116,23.39
			c1.866,6.343,12.25,2.795,13.619-2.162c0.931-3.369-3.889-4.514-5.111-1.41c-2.991,7.601,0.398,15.478,7.297,19.488
			c7.166,4.166,15.391,1.742,20.122-4.686c1.858-2.523-2.045-5.158-4.162-3.212c-4.271,3.931-5.983,10.302-4.959,15.926
			c1.203,6.607,7.538,6.002,11.651,2.546c-1.249-1.249-2.498-2.499-3.747-3.748c-7.465,9.322-1.458,21.934,10.708,21.21
			c3.396-0.202,3.416-5.504,0-5.3c-3.443,0.204-6.476-0.623-8.236-3.776c-1.486-2.662-0.509-6.156,1.275-8.386
			c2.127-2.656-1.099-5.974-3.747-3.748c-2.415,2.028-2.855,1.1-2.93-1.839c-0.086-3.353,1.266-6.866,3.732-9.137
			c-1.387-1.07-2.774-2.141-4.162-3.211c-3.345,4.544-8.769,5.169-13.491,2.423c-4.775-2.775-6.189-8.191-4.24-13.141
			c-1.704-0.47-3.407-0.939-5.111-1.41c0.315-1.138,0.12-0.348-0.512,0.198c-0.635,0.55-1.432,0.946-2.178,1.314
			c-0.29,0.106-0.585,0.192-0.886,0.259c-0.38,0.1,0.252,0.639,0.002-0.21c-0.422-1.435,0.255-3.359,0.827-4.652
			c2.314-5.242,7.527-8.674,11.103-12.979c1.163-1.401,0.96-4.011-1.17-4.43c-5.542-1.092-11.114-2.015-16.686-2.945
			c0,1.704,0,3.408,0,5.111c7.473-2.378,11.029-8.392,8.721-16.019c-0.519-1.712-2.346-2.361-3.894-1.584
			c-9.707,4.875-20.1-3.043-30.071-3.307C84.76,719.32,84.77,724.621,88.18,724.712L88.18,724.712z"/>
	</g>
	<g>
		<path fill="#050505" d="M180.721,703.023c7.522,1.702,13.642,8.019,7.665,15.201c-1.715,2.061-0.111,4.962,2.579,4.43
			c0.534-0.105-0.033-0.049-0.183-0.407c0.288,0.688,0.222,1.46,0.2,2.186c-0.067,2.255-0.758,4.522-1.385,6.671
			c-1.12,3.837-2.554,7.749-4.57,11.215c-1.562,2.687,1.958,5.175,4.163,3.211c1.995-1.775,4.251-1.589,6.683-2.263
			c-1.085-0.618-2.172-1.234-3.259-1.852c1.678,4.758,0.736,9.345-1.696,13.662c-1.233,2.189,0.776,4.247,2.993,3.894
			c1.965-0.312,3.598-1.385,5.094-2.645c-1.387-0.179-2.773-0.358-4.162-0.536c4.367,6.682-0.305,13.776-5.474,18.382
			c-2.557,2.278,1.205,6.013,3.747,3.748c6.955-6.196,11.987-16.11,6.304-24.805c-0.99-1.516-2.818-1.667-4.163-0.537
			c-0.835,0.702-1.69,1.112-2.757,1.281c0.998,1.299,1.995,2.596,2.993,3.894c3.082-5.47,4.362-11.7,2.231-17.747
			c-0.48-1.358-1.795-2.256-3.261-1.851c-3.519,0.975-6.153,1.071-9.021,3.626c1.387,1.07,2.774,2.142,4.162,3.212
			c2.711-4.661,13.386-30.109-0.049-27.45c0.86,1.476,1.719,2.954,2.579,4.43c3.418-4.107,5.494-9.277,3.16-14.473
			c-2.381-5.296-7.687-8.349-13.163-9.587C178.802,697.159,177.387,702.269,180.721,703.023L180.721,703.023z"/>
	</g>
	<g>
		<path fill="#050505" d="M28.308,735.116c-14.34-0.224-24.832-10.612-28.499-23.98c-2.837-10.348-0.264-24.339,9.832-30.09
			c2.127-1.212,4.428-1.145,6.677-0.373c2.596,0.891,6.187,3.68,7.018,6.355c0.764,2.461-4.009,6.067-4.156,2.643
			c-0.203-4.727,4.012-9.512,7.256-12.442c1.472-1.331,3.539-2.859,5.58-3.095c2.077-0.238,2.338,2.187,2.476,3.759
			c0.648-0.852,1.297-1.703,1.945-2.556c-4.269,1.795-7.914,5.167-8.291,10.054c-0.364,4.733,2.381,8.673,6.676,10.495
			c1.391,0.59,2.75,0.37,3.625-0.951c3.568-5.385,2.567-13.924,3.292-20.066c0.382-3.244,0.996-7.196,3.196-9.763
			c2.482-2.898,6.782-1.623,9.885-0.643c5.985,1.891,3.769,6.921,0.427,10.351c-0.717,0.736-1.496,1.39-2.354,1.954
			c-0.21,0.138-1.147,0.643-0.97,0.569c-0.615,0.252-0.563,0.186-0.617,0.187c0.662-0.015,1.217,0.525,1.427,1.117
			c0.151,0.427,0.053-0.191,0.115-0.453c0.409-1.73,1.404-3.328,2.286-4.847c-1.525-0.892-3.051-1.783-4.577-2.675
			c-4.922,9.014-10.4,18.452-12.394,28.639c-0.794,4.058-0.898,8.869,2.306,11.956c4.162,4.011,11.258,2.138,16.025,0.597
			c1.705-0.552,2.834-3.11,1.17-4.43c-6.651-5.274-40.239-14.791-39.514,1.178c0.506,11.131,12.616,15.061,21.865,13.949
			c9.391-1.128,22.154-5.979,26.896-14.859c0.985-1.846-0.262-3.856-2.288-3.989c-10.085-0.658-20.465,0.653-30.292,2.87
			c-8.925,2.013-19.492,5.307-25,13.167c-0.863,1.232-0.174,2.879,0.951,3.625c9.784,6.496,24.659,4.651,35.444,2.392
			c10.896-2.283,25.009-7.322,29.304-18.697c0.505-1.339-0.549-2.925-1.851-3.261c-1.415-0.365-2.463-1.586-3.926-1.964
			c-1.2-0.309-2.328,0.206-2.992,1.22c-4.185,6.369-1.959,13.439,5.693,15.201c7.968,1.836,15.888-2.774,18.78-10.216
			c-1.704,0-3.407,0-5.111,0c1.279,8.464,8.909,12.841,17.001,11.667c8.381-1.216,12.359-9.376,9.704-17.002
			c-0.795-2.282-3.474-2.506-4.845-0.633c-3.623,4.954-4.159,10.876-1.594,16.416c2.63,5.682,8.789,8.517,14.68,9.165
			c3.396,0.374,3.36-4.931,0-5.3c-9.092-1-14.108-9.95-8.508-17.605c-1.615-0.212-3.229-0.423-4.845-0.633
			c1.86,5.341-0.431,9.431-6,10.48c-5.455,1.028-9.703-2.807-10.482-7.964c-0.436-2.888-4.281-2.135-5.111,0
			c-1.811,4.657-6.477,6.887-11.273,6.649c-4.997-0.247-6.031-3.719-3.513-7.553c-0.998,0.406-1.995,0.812-2.993,1.219
			c1.415,0.364,2.463,1.584,3.926,1.963c-0.617-1.086-1.233-2.175-1.851-3.261c-3.622,9.595-17.53,13.305-26.398,15.163
			c-9.148,1.917-22.274,3.479-30.563-2.023c0.317,1.209,0.633,2.418,0.95,3.626c4.929-7.034,15.754-9.424,23.59-11.119
			c8.811-1.906,18.109-2.88,27.125-2.292c-0.763-1.328-1.526-2.658-2.289-3.987c-3.579,6.702-13.03,10.199-19.953,11.788
			c-6.791,1.561-17.912,0.837-18.932-8.202c-0.881-7.812,27.336,0.088,30.465,2.569c0.39-1.476,0.78-2.952,1.17-4.429
			c-3.013,0.975-8.755,3.161-11.376,0.241c-1.947-2.167-0.291-7.258,0.357-9.583c2.37-8.503,6.862-16.362,11.068-24.063
			c1.638-2.999-2.857-5.635-4.577-2.675c-1.646,2.832-4.262,7.004-2.527,10.345c1.536,2.957,5.408,1.654,7.537,0.333
			c5.339-3.312,11.295-11.388,7.09-17.629c-2.726-4.045-8.618-5.416-13.172-5.685c-4.774-0.281-8.643,2.686-10.602,6.851
			c-2.191,4.66-2.536,10.057-2.932,15.115c-0.293,3.75,0.091,8.984-2.081,12.264c1.208-0.317,2.417-0.635,3.625-0.951
			c-5.495-2.331-5.1-8.57,0.349-10.86c1.03-0.433,2.056-1.286,1.945-2.556c-0.44-5.058-3.113-10.025-8.969-8.908
			c-5.464,1.043-9.858,5.672-12.978,9.979c-2.755,3.802-5.904,10.66-2.703,15.063c2.908,4.001,8.57,2.342,11.41-0.809
			c4.197-4.655,1.534-10.771-2.936-14.051c-5.464-4.01-10.96-5.939-17.256-2.353c-5.503,3.135-8.95,9.346-11.153,15.049
			c-2.482,6.424-2.229,13.13-0.736,19.764c3.622,16.104,17.092,28.529,33.838,28.789C31.727,740.469,31.722,735.169,28.308,735.116
			L28.308,735.116z"/>
	</g>
	<g>
		<path fill="#050505" d="M69.142,666.819c1.845-6.368,8.08-11.3,14.154-13.412c1.52-0.529,4.533-1.474,6.011-0.298
			c2.182,1.735,0.008,6.482-0.737,8.375c1.734,0.234,3.47,0.469,5.206,0.705c-0.475-8.305-8.446-9.508-15.133-7.464
			c-5.588,1.707-9.256,8.064-10.412,13.381c-2.619,12.039,3.326,26.15,11.398,34.933c8.375,9.111,22.668,13.044,34.5,9.81
			c9.825-2.686,18.291-10.5,21.567-20.146c3.8-11.187-3.294-20.441-14.419-22.272c-1.074-0.177-2.495,0.067-2.994,1.218
			c-5.251,12.13,3.827,23.312,14.926,27.655c3.739,1.463,9.549,2.333,12.414-1.28c3.946-4.978-0.303-12.168-3.132-16.56
			c-1.386-2.151-4.977-1.395-4.939,1.338c0.151,10.62,6.649,19.484,17.571,20.677c9.204,1.003,18.687-3.685,21.951-12.611
			c1.562-4.273,1.282-10.162-1.026-14.119c-2.42-4.149-7.192-6.979-11.269-9.222c-10.156-5.589-23.284-10.164-35.031-9.12
			c-5.307,0.472-10.668,3.131-11.557,8.95c-1.203,7.865,8.48,12.858,15.141,12.206c1.514-0.148,2.546-1.098,2.65-2.65
			c0.56-8.469-5.722-16.622-11.789-21.834c-6.273-5.39-14.267-8.165-22.144-4.66c-6.136,2.729-8.117,9.797-7.109,15.918
			c1.176,7.144,7.228,12.657,14.13,14.113c1.429,0.301,2.836-0.402,3.26-1.852c1.708-5.849-0.588-8.538-4.608-12.394
			c-2.466-2.364-6.219,1.379-3.748,3.749c2.561,2.454,4.372,3.378,3.244,7.236c1.087-0.618,2.174-1.234,3.261-1.852
			c-4.98-1.051-8.72-4.297-10.157-9.222c-1.289-4.414,0.256-8.993,4.403-11.122c5.991-3.075,12.754,1.114,17.096,5.045
			c4.518,4.091,9.285,10.454,8.86,16.873c0.884-0.884,1.768-1.767,2.651-2.65c-3.511,0.344-7.361-0.935-9.396-3.967
			c-1.47-2.188,0.315-4.881,2.455-5.773c4.462-1.859,10.104-0.883,14.665,0.014c6.12,1.203,12.125,3.264,17.769,5.905
			c4.325,2.023,9.568,4.61,12.413,8.623c2.362,3.331,1.75,8.798-0.109,12.192c-2.087,3.811-6.18,5.912-10.285,6.776
			c-10.184,2.144-17.852-5.312-17.993-15.23c-1.646,0.445-3.292,0.892-4.938,1.338c1.45,2.249,2.824,4.561,3.618,7.13
			c0.344,1.114,0.435,2.892,0.172,3.222c-1.284,1.62-5.273,0.41-7.513-0.466c-7.466-2.921-14.958-11.323-11.33-19.701
			c-0.998,0.406-1.996,0.812-2.993,1.218c4.344,0.715,8.543,2.277,10.665,6.383c1.774,3.433,0.822,7.92-0.671,11.254
			c-4.372,9.761-14.797,15.777-25.327,15.558c-13.765-0.287-24.285-10.241-28.992-22.478c-2.27-5.902-3.493-12.613-1.679-18.791
			c0.798-2.72,2.549-5.092,4.841-6.737c2.653-1.903,9.497-3.344,9.771,1.46c0.178,3.108,4.123,3.45,5.205,0.704
			c1.479-3.754,2.942-8.856,0.296-12.469c-2.357-3.219-6.414-3.382-10.016-2.694c-8.661,1.654-17.47,9.188-19.93,17.679
			C63.078,668.7,68.193,670.096,69.142,666.819L69.142,666.819z"/>
	</g>
	<g>
		<path fill="#050505" d="M-2.51,723.32c-1.134-3.396-3.148-7.339-7.063-8.008c-3.347-0.571-6.349,1.307-8.503,3.721
			c-4.689,5.253-6.98,14.204-2.014,19.983c3.025,3.52,8.384,3.983,12.674,3.66c2.631-0.2,5.494-0.605,7.045-3.016
			c1.412-2.191,1.504-4.895,0.674-7.321c-2.256-6.6-8.612-4.65-12.488-0.813c-5.145,5.093-7.345,12.94-7.34,19.983
			c0.005,8.739,4.858,16.83,14.057,17.679c3.749,0.346,7.633-1.103,10.708-3.14c3.099-2.054,7.202-6.037,7.663-9.926
			c0.864-7.295-11.792-4.051-13.895-0.018c-1.766,3.385,1.757,5.694,3.553,8.063c3.117,4.114,7.356,3.511,11.727,1.673
			c3.101-1.304,1.74-6.436-1.409-5.111c-2.987,1.256-4.712,2.169-6.696-0.523c-0.745-1.01-1.529-1.927-2.503-2.721
			c0.174,0.142,0.104,0.977,0.122,0.956c0.345-0.369,0.913-0.582,1.358-0.797c0.738-0.357,1.668-0.531,2.481-0.593
			c0.394-0.031,0.516-0.034,0.881,0.053c-1.477-0.352-0.437-2.232-1.152-1.046c-1.646,2.727-3.704,4.889-6.498,6.441
			c-4.41,2.454-9.99,1.722-12.894-2.576c-4.036-5.974-2.295-14.813,0.815-20.734c0.698-1.327,4.776-7.075,5.971-6.032
			c0.711,0.621,0.787,1.775,0.777,2.638c-0.019,1.569-1.832,1.466-2.958,1.581c-3.329,0.336-8.38,0.216-9.774-3.554
			c-1.473-3.979,2.258-14.072,6.495-13.351c1.614,0.275,2.542,2.663,3.075,4.257C-6.543,727.954-1.424,726.572-2.51,723.32
			L-2.51,723.32z"/>
	</g>
	<g>
		<path fill="#050505" d="M60.072,794.038c13.164-9.795,32.594-9.6,48.016-6.603c3.339,0.648,4.763-4.46,1.41-5.11
			c-16.712-3.247-37.807-3.499-52.101,7.138C54.688,791.478,57.327,796.082,60.072,794.038L60.072,794.038z"/>
	</g>
	<g>
		<path fill="#050505" d="M16.957,799.839c3.334,1.153,6.482,2.774,9.815,3.928c3.239,1.119,4.619-4.002,1.409-5.111
			c-3.334-1.152-6.481-2.774-9.815-3.927C15.126,793.608,13.747,798.73,16.957,799.839L16.957,799.839z"/>
	</g>
	<g>
		<path fill="#050505" d="M24.202,824.551c4.789,2.251,9.338,1.515,12.459-2.914c1.975-2.801-2.624-5.444-4.576-2.675
			c-1.354,1.92-3.187,1.963-5.208,1.012C23.803,818.528,21.11,823.097,24.202,824.551L24.202,824.551z"/>
	</g>
	<g>
		<path fill="#050505" d="M74.083,818.577c9.832,4.541,20.653-0.199,25.219-9.785c1.461-3.068-3.108-5.759-4.577-2.675
			c-3.21,6.74-10.645,11.265-17.968,7.883C73.677,812.577,70.982,817.146,74.083,818.577L74.083,818.577z"/>
	</g>
</g>
</svg>
