<?xml version="1.0" encoding="utf-8"?>
<!DOCTYPE svg PUBLIC "-//W3C//DTD SVG 1.1//EN" "http://www.w3.org/Graphics/SVG/1.1/DTD/svg11.dtd">
<svg version="1.1" id="Layer_1" xmlns="http://www.w3.org/2000/svg" xmlns:xlink="http://www.w3.org/1999/xlink" x="0px" y="0px" viewBox="0 0 950 274.212" enable-background="new 0 0 950 274.212" xml:space="preserve">
<g>
	<path fill="#2E4DD2" d="M36.719,61.255V58.23c2.765-0.172,7.689-0.864,7.689-2.419c0-0.518-0.173-1.382-0.346-1.814L39.051,40.52
		H18.057c-1.209,3.196-2.419,6.479-3.196,9.244c-0.604,1.987-0.95,3.542-0.95,4.751c0,2.765,5.875,3.542,8.64,3.715v3.024H0V58.23
		c1.469-0.086,3.975-0.604,5.443-1.555c1.814-1.21,3.11-2.592,4.406-5.789c6.134-15.12,13.132-33.608,19.698-50.369h3.369
		l19.958,51.665c0.777,2.074,1.813,3.369,3.628,4.666c1.383,0.777,3.715,1.296,5.185,1.382v3.024H36.719z M28.511,13.564
		l-8.898,23.241h17.97L28.511,13.564z"/>
	<path fill="#2E4DD2" d="M114.195,61.255h-46.74V58.23c1.382-0.086,4.579-0.432,5.615-0.777c1.814-0.777,2.42-2.419,2.42-4.32
		V10.281c0-1.9-0.519-3.369-2.42-4.319c-1.382-0.691-4.233-1.469-5.615-1.555V1.382h25.228v3.024
		c-1.383,0.086-4.319,0.604-5.789,1.037c-1.9,0.778-2.418,2.505-2.418,4.406v40.174c0,7.257,0.863,7.949,9.762,7.949
		c4.233,0,9.331-0.432,11.06-2.247c2.246-2.419,6.047-9.244,7.171-12.268h3.023L114.195,61.255z"/>
	<path fill="#2E4DD2" d="M121.233,61.255V58.23c1.555-0.086,5.184-0.345,6.307-0.691c2.073-0.777,2.679-2.246,2.679-4.147V10.022
		c0-1.901-0.519-3.283-2.679-4.147c-1.556-0.605-4.752-1.382-6.307-1.469V1.382h26.955v3.024c-1.555,0.086-4.752,0.518-6.307,1.037
		c-2.16,0.691-2.679,2.246-2.679,4.147v43.284c0,1.901,0.691,3.283,2.679,4.234c1.037,0.432,4.752,1.037,6.307,1.123v3.024H121.233z
		"/>
	<path fill="#2E4DD2" d="M205.719,61.255H156.04V58.23c1.383-0.086,5.098-0.518,6.135-0.864c1.814-0.864,2.419-2.333,2.419-4.233
		V10.108c0-1.9-0.519-3.369-2.419-4.233c-1.469-0.691-4.752-1.382-6.135-1.469V1.382h46.309v14.428h-3.11
		c-1.036-3.802-5.356-10.281-8.984-10.713c-2.074-0.26-4.493-0.346-7.258-0.346h-9.417v23.759h6.739
		c5.184,0,6.307-1.382,7.343-2.678c1.21-1.469,2.16-4.838,2.506-7.084h3.11v23.413h-3.11c-0.173-2.505-1.469-6.307-2.506-7.603
		c-1.036-1.209-2.159-2.592-7.343-2.592h-6.739v17.97c0,7.085,1.469,7.862,10.194,7.862c4.493,0,11.231,0.173,13.305-1.987
		c2.593-2.678,5.876-9.59,6.739-12.182h3.024L205.719,61.255z"/>
	<path fill="#2E4DD2" d="M269.372,6.393c-2.073,1.469-2.592,5.271-2.592,11.664v43.803h-3.628l-36.287-48.986v30.843
		c0,7.171,0.951,10.368,2.679,12.009c1.296,1.21,6.652,2.419,8.035,2.505v3.024h-24.623V58.23c1.469-0.086,6.394-1.382,7.257-2.16
		c1.901-1.469,2.592-4.579,2.592-11.836V14.687c0-2.592-1.037-5.443-2.505-6.825c-2.074-1.901-6.221-3.37-8.294-3.456V1.382h17.02
		L262.72,47V18.575c0-6.912-0.95-10.541-2.592-11.75c-1.469-1.037-6.134-2.333-7.948-2.419V1.382h24.363v3.024
		C275.161,4.493,270.668,5.443,269.372,6.393z"/>
	<path fill="#2E4DD2" d="M344.532,61.255V58.23c1.383-0.086,4.579-0.345,5.529-0.691c1.901-0.777,2.42-2.333,2.42-4.233v-21.34
		h-28.079v20.821c0,1.901,0.519,3.283,2.333,4.32c0.95,0.518,4.061,1.037,5.442,1.123v3.024h-24.796V58.23
		c1.383-0.086,4.579-0.345,5.529-0.691c1.901-0.777,2.506-2.333,2.506-4.233V10.108c0-1.9-0.691-3.369-2.506-4.233
		c-1.295-0.605-4.146-1.382-5.529-1.469V1.382h24.796v3.024c-1.382,0.086-3.974,0.518-5.442,1.037
		c-1.901,0.691-2.333,2.333-2.333,4.233v18.575h28.079V10.108c0-1.9-0.605-3.369-2.42-4.233c-1.295-0.605-4.146-1.382-5.529-1.469
		V1.382h24.796v3.024c-1.382,0.086-4.061,0.518-5.443,1.037c-1.9,0.691-2.418,2.333-2.418,4.233v43.111
		c0,1.901,0.604,3.283,2.418,4.32c0.951,0.518,4.062,1.037,5.443,1.123v3.024H344.532z"/>
	<path fill="#2E4DD2" d="M427.426,61.255h-49.679V58.23c1.383-0.086,5.098-0.518,6.135-0.864c1.814-0.864,2.419-2.333,2.419-4.233
		V10.108c0-1.9-0.519-3.369-2.419-4.233c-1.469-0.691-4.752-1.382-6.135-1.469V1.382h46.309v14.428h-3.11
		c-1.036-3.802-5.356-10.281-8.984-10.713c-2.074-0.26-4.493-0.346-7.258-0.346h-9.417v23.759h6.739
		c5.184,0,6.307-1.382,7.343-2.678c1.21-1.469,2.16-4.838,2.506-7.084h3.11v23.413h-3.11c-0.173-2.505-1.469-6.307-2.506-7.603
		c-1.036-1.209-2.159-2.592-7.343-2.592h-6.739v17.97c0,7.085,1.469,7.862,10.194,7.862c4.493,0,11.231,0.173,13.306-1.987
		c2.592-2.678,5.875-9.59,6.738-12.182h3.024L427.426,61.255z"/>
	<path fill="#2E4DD2" d="M469.757,61.255V58.23c2.765-0.172,7.69-0.864,7.69-2.419c0-0.518-0.174-1.382-0.346-1.814l-5.013-13.478
		h-20.994c-1.209,3.196-2.418,6.479-3.196,9.244c-0.604,1.987-0.95,3.542-0.95,4.751c0,2.765,5.875,3.542,8.639,3.715v3.024h-22.549
		V58.23c1.469-0.086,3.975-0.604,5.443-1.555c1.814-1.21,3.11-2.592,4.406-5.789c6.134-15.12,13.133-33.608,19.698-50.369h3.37
		l19.958,51.665c0.777,2.074,1.814,3.369,3.627,4.666c1.383,0.777,3.717,1.296,5.186,1.382v3.024H469.757z M461.55,13.564
		l-8.899,23.241h17.97L461.55,13.564z"/>
	<path fill="#2E4DD2" d="M525.211,61.255h-24.795V58.23c1.555,0,4.752-0.345,5.789-0.691c1.814-0.777,2.418-2.333,2.418-4.233
		V10.108c0-1.9-0.604-3.542-2.418-4.406c-1.902-0.864-4.061-1.209-5.443-1.295V1.382h26.178c11.232,0,30.93,6.307,30.93,30.325
		C557.869,52.097,541.195,61.255,525.211,61.255z M524.693,4.838c-1.814,0-5.27,0.086-7.084,0.173v45.963
		c0,4.406,2.072,6.825,9.07,6.825c14.516,0,20.908-10.454,20.908-26.178C547.588,15.724,538.43,4.838,524.693,4.838z"/>
	<path fill="#2E4DD2" d="M586.178,62.464c-5.701,0-11.23-1.987-14.945-4.234l-1.814,3.024h-3.371l-0.604-20.476h3.369
		c2.678,9.503,7.861,18.057,18.143,18.057c7.949,0,11.318-4.233,11.318-10.541c0-4.751-2.852-9.244-8.035-11.404
		c-5.012-1.987-7.689-2.765-12.441-4.925c-6.652-3.024-10.713-7.775-10.713-15.638c0-9.244,8.295-16.242,18.143-16.242
		c5.529,0,9.678,1.9,13.393,4.147l1.729-2.851h3.369l0.346,19.871h-3.457c-2.506-9.158-5.787-17.539-15.896-17.539
		c-5.357,0-9.676,3.888-9.676,8.899c0,5.184,2.418,8.38,7.084,10.627c4.146,1.987,7.949,3.11,11.75,4.838
		c6.998,3.024,12.699,6.825,12.699,16.156C606.566,54.948,597.842,62.464,586.178,62.464z"/>
	<path fill="#2E4DD2" d="M683.369,16.329c-0.949-3.801-5.357-10.799-9.072-11.231c-2.072-0.26-4.404-0.346-7.17-0.346h-10.021V28.77
		h6.824c5.27,0,6.826-1.555,7.863-2.678c1.123-1.21,2.072-3.888,2.418-7.085h3.197v23.5h-3.197
		c-0.172-2.506-1.295-6.221-2.418-7.603c-1.037-1.209-2.506-2.678-7.863-2.678h-6.824v20.562c0,1.901,0.604,3.37,2.418,4.32
		c0.951,0.432,4.666,1.037,5.961,1.123v3.024h-25.918V58.23c1.383-0.086,5.098-0.345,6.135-0.691
		c1.814-0.777,2.418-2.333,2.418-4.233V10.108c0-1.9-0.518-3.369-2.418-4.233c-1.469-0.691-4.752-1.382-6.135-1.469V1.382h46.914
		v14.946H683.369z"/>
	<path fill="#2E4DD2" d="M720.639,62.723c-16.674,0-28.771-13.218-28.771-31.361C691.867,12.268,705.088,0,720.639,0
		c15.896,0,28.77,12.268,28.77,31.362C749.408,50.628,736.104,62.723,720.639,62.723z M720.639,3.715
		c-13.564,0-18.576,13.478-18.576,27.647c0,15.638,5.961,27.56,18.576,27.56c12.785,0,18.574-12.095,18.574-27.56
		C739.213,14.773,732.734,3.715,720.639,3.715z"/>
	<path fill="#2E4DD2" d="M808.5,6.307c-2.074,1.469-2.592,6.048-2.592,11.404v26.005c0,13.91-12.787,19.007-21.6,19.007
		c-14.6,0-22.377-8.294-22.377-17.279V10.108c0-1.9-0.604-3.283-2.418-4.319c-1.383-0.778-4.234-1.296-5.443-1.382V1.382h24.969
		v3.024c-1.383,0.086-4.234,0.518-5.615,1.037c-1.988,0.691-2.42,2.333-2.42,4.233v33.089c0,6.134,2.074,15.206,14.859,15.206
		c12.787,0,15.896-9.244,15.896-15.12V18.229c0-6.307-0.949-10.281-2.678-11.491c-1.9-1.382-6.135-2.246-7.947-2.333V1.382h24.535
		v3.024C814.201,4.493,810.141,5.184,808.5,6.307z"/>
	<path fill="#2E4DD2" d="M878.623,6.393c-2.072,1.469-2.59,5.271-2.59,11.664v43.803h-3.629l-36.287-48.986v30.843
		c0,7.171,0.949,10.368,2.678,12.009c1.297,1.21,6.652,2.419,8.035,2.505v3.024h-24.623V58.23c1.469-0.086,6.395-1.382,7.258-2.16
		c1.9-1.469,2.592-4.579,2.592-11.836V14.687c0-2.592-1.037-5.443-2.506-6.825c-2.074-1.901-6.221-3.37-8.293-3.456V1.382h17.02
		L871.971,47V18.575c0-6.912-0.949-10.541-2.592-11.75c-1.469-1.037-6.133-2.333-7.947-2.419V1.382h24.363v3.024
		C884.412,4.493,879.92,5.443,878.623,6.393z"/>
	<path fill="#2E4DD2" d="M917.344,61.255h-24.797V58.23c1.557,0,4.752-0.345,5.789-0.691c1.814-0.777,2.418-2.333,2.418-4.233
		V10.108c0-1.9-0.604-3.542-2.418-4.406c-1.9-0.864-4.061-1.209-5.443-1.295V1.382h26.178c11.232,0,30.93,6.307,30.93,30.325
		C950,52.097,933.326,61.255,917.344,61.255z M916.824,4.838c-1.814,0-5.27,0.086-7.084,0.173v45.963
		c0,4.406,2.074,6.825,9.072,6.825c14.514,0,20.908-10.454,20.908-26.178C939.721,15.724,930.562,4.838,916.824,4.838z"/>
	<path fill="#2E4DD2" d="M118.673,153.046v-3.024c1.556-0.086,5.185-0.346,6.308-0.691c2.073-0.778,2.678-2.247,2.678-4.147v-43.371
		c0-1.9-0.519-3.283-2.678-4.147c-1.556-0.605-4.752-1.382-6.308-1.469v-3.024h26.956v3.024c-1.556,0.086-4.752,0.519-6.307,1.037
		c-2.161,0.691-2.679,2.246-2.679,4.146v43.285c0,1.901,0.691,3.283,2.679,4.233c1.036,0.432,4.751,1.037,6.307,1.123v3.024H118.673
		z"/>
	<path fill="#2E4DD2" d="M209.681,98.185c-2.073,1.469-2.592,5.27-2.592,11.663v43.803h-3.628l-36.287-48.986v30.843
		c0,7.171,0.951,10.367,2.679,12.009c1.296,1.209,6.652,2.419,8.035,2.505v3.024h-24.623v-3.024c1.469-0.086,6.394-1.382,7.257-2.16
		c1.901-1.468,2.592-4.579,2.592-11.836v-29.547c0-2.592-1.036-5.443-2.505-6.825c-2.073-1.901-6.221-3.37-8.294-3.456v-3.024h17.02
		l33.694,45.617v-28.424c0-6.912-0.95-10.541-2.592-11.75c-1.469-1.037-6.134-2.333-7.948-2.419v-3.024h24.363v3.024
		C215.47,96.284,210.977,97.235,209.681,98.185z"/>
	<path fill="#2E4DD2" d="M300.134,130.324c-1.814,0.95-2.333,2.592-2.333,4.493v4.666c0,5.356,0,7.689,0.173,9.763
		c-5.789,2.678-13.91,5.184-22.031,5.184c-15.551,0-29.115-11.75-29.115-30.843c0-18.575,12.96-31.707,30.065-31.707
		c6.739,0,11.577,1.814,15.465,4.146l1.729-2.851h3.369l0.346,20.908h-3.456c-2.333-9.331-6.566-18.661-17.711-18.661
		c-11.75,0-19.525,10.195-19.525,27.733c0,15.292,7.344,27.561,20.735,27.561c5.874,0,9.503-2.16,11.145-3.542
		c0.432-2.678,0.346-5.356,0.346-8.294v-3.283c0-2.333-0.432-4.234-2.506-5.098c-1.814-0.864-5.875-1.296-7.43-1.382v-3.11h26.178
		v3.11C304.194,129.374,301.516,129.633,300.134,130.324z"/>
	<path fill="#2E4DD2" d="M358.24,153.046h-49.678v-3.024c1.382-0.086,5.097-0.519,6.134-0.864c1.814-0.864,2.419-2.333,2.419-4.233
		V101.9c0-1.9-0.518-3.369-2.419-4.233c-1.469-0.691-4.752-1.382-6.134-1.469v-3.024h46.309v14.428h-3.111
		c-1.036-3.801-5.356-10.281-8.984-10.713c-2.074-0.259-4.493-0.346-7.258-0.346h-9.417v23.759h6.739
		c5.184,0,6.307-1.382,7.344-2.678c1.209-1.469,2.159-4.838,2.505-7.084h3.11v23.414h-3.11c-0.173-2.506-1.469-6.307-2.505-7.603
		c-1.037-1.21-2.16-2.592-7.344-2.592h-6.739v17.97c0,7.084,1.469,7.862,10.194,7.862c4.493,0,11.232,0.173,13.306-1.987
		c2.592-2.678,5.875-9.59,6.738-12.182h3.024L358.24,153.046z"/>
	<path fill="#2E4DD2" d="M394.446,154.515c-16.675,0-28.771-13.219-28.771-31.362c0-19.093,13.219-31.361,28.771-31.361
		c15.896,0,28.77,12.268,28.77,31.361C423.216,142.419,409.911,154.515,394.446,154.515z M394.446,95.507
		c-13.564,0-18.575,13.478-18.575,27.646c0,15.638,5.961,27.561,18.575,27.561c12.786,0,18.575-12.096,18.575-27.561
		C413.021,106.565,406.541,95.507,394.446,95.507z"/>
	<path fill="#2E4DD2" d="M470.859,153.046c-7.085-11.145-12.269-18.402-19.093-27.128h-6.049v19.007c0,1.9,0.52,3.542,2.42,4.32
		c0.95,0.345,4.492,0.691,5.875,0.777v3.024h-25.314v-3.024c1.383-0.086,4.579-0.432,5.615-0.777c1.814-0.778,2.42-2.419,2.42-4.32
		v-43.285c0-1.901-0.519-3.628-2.42-4.406c-1.382-0.432-4.232-0.951-5.615-1.037v-3.024h27.646c9.85,0,18.835,3.974,18.835,14.255
		c0,9.503-6.308,13.651-14.601,16.156c6.565,8.553,8.467,11.404,14.601,19.612c2.506,3.37,4.406,4.665,6.307,5.702
		c1.557,0.777,4.061,1.037,5.529,1.123v3.024H470.859z M452.89,96.63h-7.172v25.66h5.53c7.775,0,13.563-5.271,13.563-13.91
		C464.812,100.086,459.456,96.63,452.89,96.63z"/>
	<path fill="#2E4DD2" d="M539.75,130.324c-1.814,0.95-2.334,2.592-2.334,4.493v4.666c0,5.356,0,7.689,0.174,9.763
		c-5.789,2.678-13.91,5.184-22.031,5.184c-15.551,0-29.115-11.75-29.115-30.843c0-18.575,12.959-31.707,30.066-31.707
		c6.738,0,11.576,1.814,15.465,4.146l1.727-2.851h3.369l0.346,20.908h-3.455c-2.332-9.331-6.566-18.661-17.711-18.661
		c-11.75,0-19.525,10.195-19.525,27.733c0,15.292,7.344,27.561,20.734,27.561c5.875,0,9.504-2.16,11.146-3.542
		c0.432-2.678,0.346-5.356,0.346-8.294v-3.283c0-2.333-0.434-4.234-2.506-5.098c-1.814-0.864-5.875-1.296-7.432-1.382v-3.11h26.18
		v3.11C543.811,129.374,541.133,129.633,539.75,130.324z"/>
	<path fill="#2E4DD2" d="M547.678,153.046v-3.024c1.555-0.086,5.184-0.346,6.307-0.691c2.074-0.778,2.678-2.247,2.678-4.147v-43.371
		c0-1.9-0.518-3.283-2.678-4.147c-1.555-0.605-4.752-1.382-6.307-1.469v-3.024h26.955v3.024c-1.555,0.086-4.752,0.519-6.307,1.037
		c-2.16,0.691-2.678,2.246-2.678,4.146v43.285c0,1.901,0.691,3.283,2.678,4.233c1.037,0.432,4.752,1.037,6.307,1.123v3.024H547.678z
		"/>
	<path fill="#2E4DD2" d="M616.844,153.046v-3.024c2.766-0.173,7.689-0.864,7.689-2.419c0-0.519-0.172-1.382-0.346-1.814
		l-5.01-13.478h-20.994c-1.211,3.197-2.42,6.479-3.197,9.244c-0.605,1.987-0.951,3.542-0.951,4.752c0,2.765,5.875,3.542,8.641,3.715
		v3.024h-22.549v-3.024c1.469-0.086,3.973-0.604,5.441-1.555c1.814-1.209,3.111-2.592,4.408-5.788
		c6.133-15.12,13.131-33.608,19.697-50.369h3.369L633,143.975c0.779,2.074,1.814,3.37,3.629,4.666
		c1.383,0.778,3.715,1.296,5.184,1.382v3.024H616.844z M608.637,105.356l-8.898,23.24h17.971L608.637,105.356z"/>
	<path fill="#2E4DD2" d="M693.646,126.782h-6.652v18.143c0,1.9,0.518,3.542,2.418,4.32c1.037,0.345,4.32,0.691,6.221,0.777v3.024
		h-25.66v-3.024c1.383-0.086,4.58-0.432,5.617-0.777c1.814-0.778,2.418-2.419,2.418-4.32v-43.198c0-1.901-0.518-3.715-2.418-4.492
		c-1.988-0.605-4.406-0.951-5.961-1.037v-3.024h27.387c10.713,0,18.748,5.529,18.748,14.774
		C715.764,120.907,704.705,126.782,693.646,126.782z M692.869,96.63h-5.875v26.437h4.232c12.441,0,14.082-8.812,14.082-13.045
		C705.309,103.369,702.717,96.63,692.869,96.63z"/>
	<path fill="#2E4DD2" d="M763.131,153.046c-7.084-11.145-12.268-18.402-19.094-27.128h-6.047v19.007c0,1.9,0.518,3.542,2.418,4.32
		c0.951,0.345,4.494,0.691,5.875,0.777v3.024h-25.314v-3.024c1.383-0.086,4.58-0.432,5.617-0.777
		c1.814-0.778,2.418-2.419,2.418-4.32v-43.285c0-1.901-0.518-3.628-2.418-4.406c-1.383-0.432-4.234-0.951-5.617-1.037v-3.024h27.648
		c9.848,0,18.834,3.974,18.834,14.255c0,9.503-6.307,13.651-14.602,16.156c6.566,8.553,8.467,11.404,14.602,19.612
		c2.504,3.37,4.406,4.665,6.307,5.702c1.555,0.777,4.061,1.037,5.529,1.123v3.024H763.131z M745.16,96.63h-7.17v25.66h5.529
		c7.775,0,13.564-5.271,13.564-13.91C757.084,100.086,751.727,96.63,745.16,96.63z"/>
	<path fill="#2E4DD2" d="M807.57,154.515c-16.674,0-28.77-13.219-28.77-31.362c0-19.093,13.219-31.361,28.77-31.361
		c15.896,0,28.77,12.268,28.77,31.361C836.34,142.419,823.035,154.515,807.57,154.515z M807.57,95.507
		c-13.564,0-18.576,13.478-18.576,27.646c0,15.638,5.963,27.561,18.576,27.561c12.787,0,18.576-12.096,18.576-27.561
		C826.146,106.565,819.666,95.507,807.57,95.507z"/>
</g>
<g>
	<path fill="#2E4DD2" d="M310.175,274.181c-1.674,0-3.194-0.372-4.558-1.147l-0.527,0.806h-1.054l-0.186-5.519h1.054
		c0.403,1.364,0.93,2.294,1.798,3.255c0.837,0.899,1.86,1.458,3.349,1.458c2.015,0,3.101-0.992,3.101-2.729
		c0-1.612-0.868-2.294-2.791-3.039l-1.178-0.403c-2.511-0.899-4.837-2.077-4.837-5.116c0-2.635,2.326-4.372,5.209-4.372
		c1.582,0,2.729,0.527,3.751,1.116l0.496-0.775h1.055l0.124,5.364h-1.055c-0.341-1.24-0.775-2.232-1.488-3.132
		c-0.682-0.868-1.581-1.457-3.038-1.457c-1.427,0-2.636,0.837-2.636,2.48c0,1.922,1.488,2.356,3.504,3.038
		c0.558,0.187,1.147,0.403,1.767,0.651c2.17,0.868,3.627,2.294,3.627,4.62C315.663,272.196,313.369,274.181,310.175,274.181z"/>
	<path fill="#2E4DD2" d="M342.566,273.84h-7.906v-0.961c0.651-0.031,1.147-0.093,1.581-0.187c0.744-0.186,1.116-0.558,1.116-1.271
		v-11.162h-0.186l-5.86,13.333h-0.899l-1.705-4.186l-3.752-9.178H324.8v8.96c0,2.791,0.217,3.07,1.736,3.473
		c0.558,0.155,0.899,0.217,1.085,0.217v0.961h-6.945v-0.961c1.302-0.093,2.325-0.279,2.635-1.52
		c0.124-0.434,0.155-1.178,0.155-2.201v-7.938c0-1.023-0.31-1.644-0.837-2.016c-0.496-0.372-1.147-0.496-1.86-0.527v-0.961h6.17
		l4.806,11.813l4.31-9.674c0.31-0.713,0.558-1.923,0.589-2.14h5.891v0.961c-0.744,0.062-1.302,0.155-1.674,0.341
		c-0.434,0.186-0.651,0.527-0.651,1.085v11.317c0,0.527,0.155,0.93,0.775,1.178c0.341,0.124,0.868,0.248,1.581,0.279V273.84z"/>
	<path fill="#2E4DD2" d="M365.328,273.84h-7.472v-0.961c1.271-0.062,2.202-0.311,2.202-0.651c0-0.186-0.062-0.403-0.155-0.682
		l-1.209-3.131h-5.768l-0.93,2.294c-0.187,0.559-0.279,0.931-0.279,1.179c0,0.62,1.147,0.93,2.356,0.992v0.961h-6.449v-0.961
		c0.713-0.031,1.302-0.217,1.736-0.559c0.465-0.341,0.837-0.806,1.085-1.426c0.868-2.016,1.83-4.155,2.853-6.667l2.791-6.728h1.116
		l5.612,13.767c0.155,0.403,0.403,0.775,0.806,1.085c0.372,0.279,0.93,0.496,1.705,0.527V273.84z M358.259,267.267l-2.418-6.17
		l-2.48,6.17H358.259z"/>
	<path fill="#2E4DD2" d="M384.073,273.84h-13.735v-0.961l1.085-0.093c0.744-0.124,1.209-0.403,1.209-1.302v-11.224
		c0-0.713-0.248-1.116-1.458-1.395c-0.341-0.093-0.62-0.187-0.837-0.187v-0.961h7.565v0.961c-0.465,0.031-0.868,0.093-1.209,0.187
		c-0.744,0.186-1.147,0.558-1.147,1.302v10.511c0,1.922,0.155,2.139,2.791,2.139c1.147,0,2.635-0.124,3.101-0.62
		c0.62-0.62,1.798-2.542,2.078-3.286h0.93L384.073,273.84z"/>
	<path fill="#2E4DD2" d="M403.364,273.84h-13.735v-0.961l1.085-0.093c0.744-0.124,1.209-0.403,1.209-1.302v-11.224
		c0-0.713-0.248-1.116-1.458-1.395c-0.341-0.093-0.62-0.187-0.837-0.187v-0.961h7.565v0.961c-0.465,0.031-0.868,0.093-1.209,0.187
		c-0.744,0.186-1.147,0.558-1.147,1.302v10.511c0,1.922,0.155,2.139,2.791,2.139c1.147,0,2.635-0.124,3.101-0.62
		c0.62-0.62,1.798-2.542,2.078-3.286h0.93L403.364,273.84z"/>
	<path fill="#2E4DD2" d="M419.513,265.934c0-4.868,3.504-8.558,8.186-8.558c1.705,0,3.039,0.403,4.279,1.116l0.589-0.775h1.023
		l0.124,5.767h-1.054c-0.682-2.574-1.953-4.992-4.806-4.992c-4.093,0-5.116,4-5.116,7.286c0,3.565,1.736,7.007,5.519,7.007
		c2.418,0,4.093-1.426,5.023-3.442l1.023,0.496c-1.24,2.791-3.349,4.372-6.977,4.372
		C422.582,274.212,419.513,270.305,419.513,265.934z"/>
	<path fill="#2E4DD2" d="M455.751,273.84h-7.472v-0.961c1.271-0.062,2.202-0.311,2.202-0.651c0-0.186-0.062-0.403-0.155-0.682
		l-1.209-3.131h-5.768l-0.93,2.294c-0.187,0.559-0.279,0.931-0.279,1.179c0,0.62,1.147,0.93,2.356,0.992v0.961h-6.449v-0.961
		c0.713-0.031,1.302-0.217,1.736-0.559c0.465-0.341,0.837-0.806,1.085-1.426c0.868-2.016,1.83-4.155,2.853-6.667l2.791-6.728h1.116
		l5.612,13.767c0.155,0.403,0.403,0.775,0.806,1.085c0.372,0.279,0.93,0.496,1.705,0.527V273.84z M448.682,267.267l-2.418-6.17
		l-2.48,6.17H448.682z"/>
	<path fill="#2E4DD2" d="M468.016,266.833h-2.046v4.651c0,0.744,0.155,1.085,1.116,1.271c0.341,0.062,0.806,0.093,1.364,0.124v0.961
		h-7.689v-0.961c0.682-0.062,1.24-0.093,1.644-0.248c0.403-0.187,0.651-0.527,0.651-1.147v-11.317c0-0.527-0.093-0.992-0.682-1.178
		c-0.62-0.217-1.24-0.248-1.674-0.311v-0.961h7.968c3.442,0,5.55,1.426,5.55,3.969C474.217,265.003,471.613,266.833,468.016,266.833
		z M467.52,258.802h-1.55v6.915h1.054c3.503,0,3.907-2.202,3.907-3.442C470.931,260.383,470.187,258.802,467.52,258.802z"/>
	<path fill="#2E4DD2" d="M485.865,274.181c-1.675,0-3.193-0.372-4.558-1.147l-0.527,0.806h-1.054l-0.187-5.519h1.054
		c0.403,1.364,0.931,2.294,1.799,3.255c0.837,0.899,1.86,1.458,3.349,1.458c2.016,0,3.101-0.992,3.101-2.729
		c0-1.612-0.868-2.294-2.79-3.039l-1.179-0.403c-2.512-0.899-4.837-2.077-4.837-5.116c0-2.635,2.325-4.372,5.209-4.372
		c1.581,0,2.729,0.527,3.752,1.116l0.496-0.775h1.054l0.124,5.364h-1.054c-0.341-1.24-0.775-2.232-1.488-3.132
		c-0.683-0.868-1.581-1.457-3.039-1.457c-1.426,0-2.635,0.837-2.635,2.48c0,1.922,1.487,2.356,3.503,3.038
		c0.559,0.187,1.147,0.403,1.768,0.651c2.17,0.868,3.628,2.294,3.628,4.62C491.354,272.196,489.059,274.181,485.865,274.181z"/>
	<path fill="#2E4DD2" d="M524.338,258.678c-0.434,0.031-1.116,0.217-1.519,0.435c-0.559,0.31-0.838,0.806-1.147,1.488
		c-0.559,1.209-1.364,3.007-2.419,5.55c-1.116,2.542-2.232,5.116-3.379,7.906h-1.303l-3.349-8.402
		c-1.085-2.729-1.984-4.775-2.294-5.426c-0.218-0.465-0.621-0.931-1.117-1.179c-0.434-0.217-0.774-0.341-1.24-0.372v-0.961h7.349
		v0.961c-0.589,0.031-1.054,0.093-1.488,0.187c-0.403,0.093-0.62,0.217-0.62,0.434c0,0.187,0.094,0.435,0.155,0.559
		c0.279,0.713,0.713,1.891,1.396,3.565l2.821,6.977c0.62-1.396,1.209-2.884,1.984-4.775l1.644-3.875
		c0.248-0.682,0.527-1.364,0.527-1.954c0-0.465-0.373-0.682-0.931-0.837c-0.527-0.155-1.054-0.217-1.644-0.279v-0.961h6.573V258.678
		z"/>
	<path fill="#2E4DD2" d="M542.181,273.84h-7.473v-0.961c1.271-0.062,2.202-0.311,2.202-0.651c0-0.186-0.062-0.403-0.155-0.682
		l-1.209-3.131h-5.768l-0.93,2.294c-0.187,0.559-0.279,0.931-0.279,1.179c0,0.62,1.147,0.93,2.356,0.992v0.961h-6.449v-0.961
		c0.713-0.031,1.302-0.217,1.736-0.559c0.465-0.341,0.837-0.806,1.085-1.426c0.868-2.016,1.83-4.155,2.853-6.667l2.791-6.728h1.116
		l5.611,13.767c0.155,0.403,0.403,0.775,0.807,1.085c0.372,0.279,0.93,0.496,1.705,0.527V273.84z M535.111,267.267l-2.418-6.17
		l-2.48,6.17H535.111z"/>
	<path fill="#2E4DD2" d="M564.243,273.84h-4.65c-2.078-3.069-3.442-4.868-5.457-7.286h-1.736v4.93c0,0.651,0.123,0.992,0.806,1.178
		c0.341,0.124,0.837,0.186,1.55,0.217v0.961h-7.564v-0.961c0.682-0.062,1.24-0.093,1.643-0.248c0.403-0.187,0.651-0.527,0.651-1.147
		v-11.317c0-0.527-0.093-0.961-0.683-1.178c-0.402-0.124-1.146-0.279-1.611-0.311v-0.961h8.247c2.821,0,5.736,1.085,5.736,3.845
		c0,2.449-1.644,3.659-4.187,4.341l2.078,2.667l2.077,2.48c1.271,1.582,1.984,1.798,3.101,1.83V273.84z M554.445,258.802h-2.046
		v6.604h1.581c1.085,0,2.046-0.155,2.79-0.837c0.713-0.683,1.086-1.612,1.086-2.729
		C557.856,259.887,556.616,258.802,554.445,258.802z"/>
	<path fill="#2E4DD2" d="M569.253,273.84v-0.961c0,0,1.643-0.155,1.798-0.217c0.527-0.155,0.775-0.496,0.775-1.085v-11.379
		c0-0.527-0.093-0.868-0.775-1.116c-0.434-0.186-1.364-0.341-1.798-0.403v-0.961h8.03v0.961c-0.496,0.031-1.271,0.124-1.798,0.279
		c-0.621,0.186-0.775,0.62-0.775,1.116v11.379c0,0.496,0.217,0.899,0.775,1.116c0.31,0.124,1.302,0.311,1.798,0.311v0.961H569.253z"
		/>
	<path fill="#2E4DD2" d="M599.893,273.84h-7.472v-0.961c1.271-0.062,2.201-0.311,2.201-0.651c0-0.186-0.062-0.403-0.155-0.682
		l-1.209-3.131h-5.768l-0.93,2.294c-0.187,0.559-0.279,0.931-0.279,1.179c0,0.62,1.147,0.93,2.356,0.992v0.961h-6.449v-0.961
		c0.713-0.031,1.303-0.217,1.736-0.559c0.465-0.341,0.837-0.806,1.085-1.426c0.868-2.016,1.829-4.155,2.853-6.667l2.791-6.728h1.116
		l5.612,13.767c0.154,0.403,0.402,0.775,0.806,1.085c0.372,0.279,0.931,0.496,1.705,0.527V273.84z M592.823,267.267l-2.418-6.17
		l-2.48,6.17H592.823z"/>
	<path fill="#2E4DD2" d="M623.22,258.678c-0.744,0.093-1.488,0.217-2.047,0.527c-0.589,0.403-0.744,1.52-0.744,3.132v11.658h-1.209
		l-10.572-13.022v7.999c0,1.86,0.248,2.791,0.774,3.225c0.496,0.403,1.675,0.62,2.295,0.683v0.961h-7.069v-0.961
		c0.713-0.062,1.55-0.217,2.077-0.559c0.558-0.434,0.744-1.178,0.744-3.225v-7.627c0-0.683-0.248-1.488-0.713-1.83
		c-0.589-0.558-1.612-0.899-2.388-0.961v-0.961h5.209l9.674,11.999v-7.224c0-1.86-0.279-2.822-0.744-3.163
		c-0.651-0.403-1.581-0.589-2.264-0.651v-0.961h6.977V258.678z"/>
	<path fill="#2E4DD2" d="M643.425,262.244h-0.992c-0.154-0.527-0.402-1.333-0.898-2.015c-0.466-0.683-1.086-1.271-1.613-1.364
		c-0.496-0.062-1.363-0.093-2.015-0.093h-0.683v12.588c0,0.496,0.187,0.93,0.744,1.178c0.311,0.062,1.52,0.341,2.016,0.341v0.961
		h-8.434v-0.961c0.527,0,1.674-0.124,2.016-0.248c0.527-0.187,0.775-0.559,0.775-1.179v-12.681h-0.714c-0.496,0-1.302,0-1.984,0.093
		c-0.526,0.062-1.147,0.682-1.644,1.364c-0.465,0.682-0.713,1.519-0.867,2.015h-0.992v-4.527h15.285V262.244z"/>
</g>
</svg>
