<svg fill="none" height="22" viewBox="0 0 341 22" width="341" xmlns="http://www.w3.org/2000/svg"><g fill="#000"><path d="m315.691 2.00201v-1.025999c0-.114001.076-.19.19-.19.228 0 2.356.114 3.268.114 1.026 0 2.356-.114 2.85-.114.228 0 .418.114.532.417999l5.396 11.66599c.418-.988 1.748-3.76199 2.394-5.20599.532-1.216 2.774-5.966 2.926-6.384.114-.266.342-.379999.646-.379999 4.636 0 5.434-.114 5.7-.114.152 0 .19.113999.19.341999v.798c0 .152-.076.266-.266.266h-.912c-.608 0-.76.418-.798.798 0 .342-.076 6.08-.076 6.536 0 .49399.076 5.50999.076 5.85199 0 .722.228 1.33.836 1.33h1.33c.114 0 .19.076.19.19v.95c0 .152-.076.266-.266.266-.304 0-2.432-.114-3.8-.114-1.71 0-4.066.114-4.332.114-.152 0-.228-.114-.228-.342v-.836c0-.152.076-.228.228-.228h1.026c.76 0 1.026-.418 1.026-.76.038-.57.076-5.7.076-6.04199v-6.118h-.228c-.304.684-2.546 5.472-3.154 6.72599-.494.95-3.002 6.384-3.154 6.65-.114.228-.418.57-.684.57-.342 0-.532-.19-.684-.418-.114-.19-3.686-7.86599-3.952-8.39799-.532-1.064-1.71-3.876-2.204-4.94h-.19c-.038.646-.076 4.864-.076 5.13 0 .304-.038 5.43399 0 5.85199.152 1.368.684 1.748 1.482 1.748h.912c.152 0 .19.114.19.304v.874c0 .114-.038.228-.228.228-.228 0-2.014-.114-3.192-.114-1.558 0-3.002.114-3.23.114-.19 0-.228-.076-.228-.342v-.836c0-.152.076-.228.19-.228h.798c.798 0 1.368-.494 1.482-1.026.38-1.71.456-7.90399.456-8.32199 0-.342-.038-3.952-.038-4.294 0-.57 0-.874-1.596-.874h-.684c-.114 0-.19-.076-.19-.19z"/><path d="m303.55 18.456c-1.444 0-3.686-.228-5.928-1.71-1.33-.874-3.306-3.534-3.306-7.10603 0-1.558.266-3.838 2.09-5.966 2.28-2.736001 4.712-3.23 7.448-3.23 1.862 0 4.294.266 6.156 2.052 1.52 1.406 2.964 3.762 2.964 7.182 0 1.82403-.38 3.68603-1.482 5.24403-1.596 2.318-3.99 3.534-7.942 3.534zm.228-1.52c4.294 0 4.75-5.13 4.75-7.18203 0-4.978-2.774-7.79-4.788-7.79-.722 0-2.28.152-3.154 1.292-1.14 1.52-1.9 3.8-1.9 5.738 0 6.04203 3.458 7.94203 5.092 7.94203z"/><path d="m281.432 18.456c-1.444 0-3.686-.228-5.928-1.71-1.33-.874-3.306-3.534-3.306-7.10603 0-1.558.266-3.838 2.09-5.966 2.28-2.736001 4.712-3.23 7.448-3.23 1.862 0 4.294.266 6.156 2.052 1.52 1.406 2.964 3.762 2.964 7.182 0 1.82403-.38 3.68603-1.482 5.24403-1.596 2.318-3.99 3.534-7.942 3.534zm.228-1.52c4.294 0 4.75-5.13 4.75-7.18203 0-4.978-2.774-7.79-4.788-7.79-.722 0-2.28.152-3.154 1.292-1.14 1.52-1.9 3.8-1.9 5.738 0 6.04203 3.458 7.94203 5.092 7.94203z"/><path d="m254.329 9.33601v-5.966c0-.76-.38-1.178-1.444-1.178h-.38c-.114 0-.152-.114-.152-.266v-.949999c0-.114001.076-.19.228-.19.19 0 2.546.114 3.534.114.722 0 3.838-.114 4.522-.114 2.204 0 3.724.645999 5.168 1.481999.836.798 1.33 1.9 1.33 2.774 0 2.622-1.482 4.066-4.37 5.01599v.152c.95.304 1.71 1.482 3.116 3.648.494.798 1.368 1.938 1.9 2.432.532.38 1.216.418 1.9.418.152 0 .19.114.19.342v.798c0 .152-.076.266-.228.266-.076 0-.418-.038-.874-.076-.456 0-1.026-.038-1.634-.038-.988 0-2.204.038-2.774.076-.722-.532-2.394-3.61-2.736-4.18-1.292-2.318-1.938-3.078-2.546-3.078-.266 0-.532 0-.95.076v.798 4.066c.076.532.304.95.874.95h1.064c.152 0 .228.076.228.19v.95c0 .19-.076.266-.304.266-.266 0-2.318-.114-3.8-.114-1.52 0-3.458.114-3.724.114-.152 0-.228-.114-.228-.342v-.874c0-.114.076-.19.228-.19h.456c.912 0 1.368-.152 1.368-.988.038-1.862.038-4.104.038-6.38399zm3.8-6.498v6.65c.342.076.874.076 1.368.076 2.964 0 3.61-2.964 3.61-3.952 0-1.14-.57-2.166-1.026-2.66-.494-.532-1.558-.836-2.66-.836-.646 0-1.292.152-1.292.722z"/><path d="m231.922 8.68999v-1.748c0-.646-.076-3.496-.152-4.104-.038-.342-.38-.646-1.254-.646h-.912c-.114 0-.152-.076-.152-.266v-.912c0-.152001.038-.228001.19-.228001.266 0 3.116.114001 4.028.114001.646 0 3.154-.114001 3.99-.114001 3.496 0 6.156-.038 8.816 2.242001 1.672 1.482 2.622 3.306 2.622 6.118 0 2.88801-.532 4.63601-2.318 6.38401-2.698 2.698-7.448 2.546-8.512 2.546-.684 0-4.446-.076-5.168-.076-.494 0-3.344.114-3.534.114-.152 0-.19-.076-.19-.342v-.874c0-.114.038-.19.19-.19h1.368c.494 0 .798-.418.836-.608.076-.342.152-5.51.152-7.41001zm4.028-1.14v1.71c0 .304.038 4.25601.076 5.47201 0 .494.114.912.494 1.368.342.418 1.368.684 2.014.684 2.052 0 4.18-1.482 4.864-2.47.836-1.178 1.368-2.964 1.368-4.71201 0-2.052-.76-4.142-1.672-5.32-.836-1.102-2.85-2.242-5.016-2.242-.38 0-1.178 0-1.558.152-.38.19-.494.494-.532.912-.038 1.026-.038 4.028-.038 4.446z"/><path d="m206.444 12.3.798.076c.114.038.266.114.228.342 0 .456.076 1.254.646 2.508.57 1.026 1.824 1.786 3.61 1.786 1.254 0 2.85-.95 2.85-2.546 0-1.748-1.254-2.546-3.306-3.192-.76-.266-2.584-1.026-3.724-1.97603-1.254-1.064-1.71-2.09-1.71-4.408 0-1.292.874-2.508 1.824-3.306s2.508-1.14 4.028-1.14 2.318.266 2.774.493999c.38.228001.57.266001.646.076001l.152-.266c.076-.114.19-.114001.532-.114001.38 0 .418.152001.418.342001 0 1.254.342 3.724.38 4.256 0 .114-.038.19-.152.228l-.76.152c-.076.038-.228 0-.266-.152-.152-.494-.532-1.786-1.254-2.66-.532-.57-1.368-.95-2.85-.95-2.052 0-2.546 1.52-2.546 2.204 0 .494 0 .874.304 1.444.38.684 1.292 1.026 2.736 1.482 1.748.608 3.154 1.026 4.18 1.976 1.064.95 1.558 1.90003 1.558 4.21803 0 2.85-1.862 5.282-5.966 5.282-1.938 0-3.268-.646-4.142-1.33-.266-.19-.494-.228-.57.076l-.114.304c-.076.19-.266.266-.608.19-.304-.076-.418-.228-.38-.418.114-1.064.38-4.104.418-4.712.038-.152.114-.266.266-.266z"/><path d="m194.813 9.56401v-1.634c0-.608-.076-3.534-.076-4.598 0-.76-.342-1.14-1.254-1.14h-1.254c-.19 0-.228-.114-.228-.266v-.912c0-.152.076-.227999.228-.227999.228 0 2.584.152 4.598.114 1.862 0 3.8-.114 4.104-.114.152 0 .228.075999.228.227999v.912c0 .152-.038.266-.228.266h-.798c-.874 0-1.216.152-1.254.912 0 .38-.038 3.876-.038 5.168v1.89999c0 1.14 0 4.598.038 5.13.076.874.532 1.406 1.254 1.406h.95c.19 0 .228.076.228.19v.95c0 .152-.038.266-.228.266-.304 0-2.28-.114-4.408-.114-2.052 0-4.256.114-4.484.114-.152 0-.228-.114-.228-.342v-.836c0-.114.076-.228.228-.228h.836c1.026 0 1.634-.038 1.71-.684.038-.342.076-5.168.076-6.45999z"/><path d="m174.136 9.33601v-5.966c0-.76-.38-1.178-1.444-1.178h-.38c-.114 0-.152-.114-.152-.266v-.949999c0-.114001.076-.19.228-.19.19 0 2.546.114 3.534.114.722 0 3.838-.114 4.522-.114 2.204 0 3.724.645999 5.168 1.481999.836.798 1.33 1.9 1.33 2.774 0 2.622-1.482 4.066-4.37 5.01599v.152c.95.304 1.71 1.482 3.116 3.648.494.798 1.368 1.938 1.9 2.432.532.38 1.216.418 1.9.418.152 0 .19.114.19.342v.798c0 .152-.076.266-.228.266-.076 0-.418-.038-.874-.076-.456 0-1.026-.038-1.634-.038-.988 0-2.204.038-2.774.076-.722-.532-2.394-3.61-2.736-4.18-1.292-2.318-1.938-3.078-2.546-3.078-.266 0-.532 0-.95.076v.798 4.066c.076.532.304.95.874.95h1.064c.152 0 .228.076.228.19v.95c0 .19-.076.266-.304.266-.266 0-2.318-.114-3.8-.114-1.52 0-3.458.114-3.724.114-.152 0-.228-.114-.228-.342v-.874c0-.114.076-.19.228-.19h.456c.912 0 1.368-.152 1.368-.988.038-1.862.038-4.104.038-6.38399zm3.8-6.498v6.65c.342.076.874.076 1.368.076 2.964 0 3.61-2.964 3.61-3.952 0-1.14-.57-2.166-1.026-2.66-.494-.532-1.558-.836-2.66-.836-.646 0-1.292.152-1.292.722z"/><path d="m154.057 8.31001h7.296c.38 0 .532-.076.532-.38v-.76c0-.532-.076-3.496-.076-3.914 0-.646-.38-1.064-.874-1.064h-.874c-.19 0-.266-.076-.266-.228v-.912c0-.189999.076-.265999.266-.265999.418 0 2.774.114 3.952.114 1.216 0 3.496-.114 3.8-.114s.342.114.342.417999v.722c0 .152-.038.266-.38.266h-.988c-.608 0-.836.418-.836.874 0 .57-.038 4.408-.038 5.282v.836c0 .798.038 5.35799.038 5.66199.038 1.482.266 1.862 1.064 1.862h1.14c.152 0 .19.114.19.266v.874c0 .19-.076.266-.304.266-.342 0-2.28-.114-3.952-.114-1.254 0-3.534.114-4.142.114-.266 0-.342-.114-.342-.304v-.874c0-.152.076-.228.266-.228h1.254c.57 0 .684-.456.684-1.292 0-.532.076-4.142.076-4.674v-.75999c0-.266-.152-.304-.57-.304h-7.182c-.304 0-.38.038-.38.228v.34199c0 .646.038 4.37.038 5.054.038 1.178.304 1.406.836 1.406h.912c.152 0 .228.076.228.266v.874c0 .152-.076.266-.228.266-.456 0-2.584-.114-3.8-.114-1.254 0-3.724.114-4.256.114-.19 0-.266-.076-.266-.304v-.874c0-.19.076-.228.304-.228h1.026c1.026 0 1.064-.608 1.102-1.368.038-.494.076-5.206.076-5.81399v-1.064c0-1.52-.076-4.484-.076-4.826 0-1.102-.418-1.444-1.102-1.444h-1.064c-.228 0-.304-.076-.304-.266v-.836c0-.228.038-.303999.304-.303999.418 0 2.888.114 4.18.114 1.406 0 3.572-.114 3.99-.114.228 0 .304.075999.304.455999v.684c0 .19-.038.266-.304.266h-.836c-.646 0-1.026.418-1.026.95 0 .342-.038 3.496-.038 4.56v.304c0 .19.076.304.304.304z"/><path d="m143.055 6.63797-.912.152c-.152.038-.19-.076-.266-.304-.228-.874-.684-1.9-1.672-2.964-.874-.95-2.166-1.634-3.914-1.634-3.61 0-4.522 3.648-4.522 6.004 0 2.16603.038 3.72403 1.254 5.54803 1.596 2.432 2.888 2.812 4.522 2.812 2.508 0 4.484-.95 5.396-2.546.19-.304.38-.304.494-.228l.646.418c.152.076.076.266-.038.494-1.216 2.28-3.952 4.066-7.41 4.066-3.192 0-5.358-.988-6.612-2.166-1.9-1.71-2.698-4.484-2.698-6.91603 0-2.318.836-4.598 2.546-6.46 1.064-1.178 3.724-2.47 6.46-2.47 2.28 0 3.952.684 4.674 1.102.342.19.608.19.646 0l.114-.418c.038-.114.152-.190001.608-.190001.456.038001.57.076001.57.418001 0 .418.38 3.99.418 4.902.038.19 0 .38-.304.38z"/><path d="m113.705 14.7966h.113c.409-.7181 1.773-3.366 2.046-4.488.091-.35909.272-.89766.272-1.43623 0-.40393-.091-.76297-.181-1.03226-.091-.26928-.228-.58345-.228-.89761 0-.40393.318-.9425 1.137-.9425.863 0 1.136.62833 1.136 1.43619 0 .98737-.818 2.96211-1.591 4.48811-1.136 2.1991-3.545 6.1486-5.523 8.0336-.659.6284-2.022 2.0421-3.431 2.0421-1 0-1.455-.5386-1.455-1.1669 0-.6732.545-1.122 1.045-1.1669.41 0 .591.1795.819.4039.181.1795.454.3142.636.3142.227 0 .591-.0898 1.023-.3815 1.045-.7405 1.886-1.9972 2.25-2.5582.25-.4039.318-.9425.227-1.5259-.045-.7181-.568-6.68728-.841-7.67466-.114-.40393-.159-.58345-.432-.58345-.409 0-1 1.12202-1.182 1.61571-.045.13464-.09.13464-.204.1122l-.341-.1122c-.091 0-.091-.08976-.045-.26929.09-.26928 1.045-3.00701 3.045-3.00701.818 0 1.273.58345 1.409 2.46844.182 2.55816.273 5.20616.296 6.32816z"/><path d="m101.907 0h3.535c.232 0 .279.18686.186.397079l-3.768 8.455471.187.04672c1.069-1.49489 2.558-2.84964 4.232-2.84964 1.116 0 1.721.93431 1.721 1.89198 0 1.19124-.605 3.48029-2.791 5.72259-1.256 1.3081-2.744 2.3358-5.3485 2.3358-1.0698 0-1.8605-.6073-1.8605-1.635 0-.4205.1861-1.0278.3256-1.4015 1.5349-3.87737 3.0694-7.6146 4.5114-11.18832.093-.25693.14-.42044.14-.56058 0-.233578-.233-.373725-.558-.373725h-.698c-.14 0-.233-.046714-.186-.18686l.139-.467154c.047-.1401458.093-.186861.233-.186861zm3.116 7.45109c-.697 0-2.093 1.16789-3.256 2.89631-.837 1.2614-1.581 3.2234-1.581 3.9241 0 .5606.279.7942.837.7942.651 0 1.582-.6073 2.396-1.4715 1.465-1.6117 2.302-3.4803 2.302-5.09201 0-.67737-.326-1.0511-.698-1.0511z"/><path d="m77.8679 2.19201v6.27c1.102 0 2.356-.114 2.66-.19.798-.19 1.178-.722 1.33-1.9.038-.152.076-.19.228-.19l.836.038c.152 0 .266.076.228.228-.076.342-.076 2.356-.076 2.698 0 .836.114 2.01399.152 2.50799 0 .152-.076.19-.19.19l-.798.114c-.114.038-.19-.038-.228-.19-.38-.95-.608-1.52-1.406-1.748-1.14-.26599-1.71-.26599-2.736-.26599v1.25399c0 1.33.076 3.534.076 4.028 0 1.672 1.178 1.786 2.622 1.786 1.672 0 2.774 0 3.838-.95.304-.228 1.634-1.938 2.204-2.66.152-.19.266-.228.38-.152l.722.38c.076.038.152.152.114.266l-1.368 4.028c-.076.19-.266.38-.418.38-.266 0-2.28-.114-10.564-.114-1.444 0-3.534.114-3.99.114-.19 0-.228-.114-.228-.304v-.874c0-.152.076-.228.266-.228h.342c1.786 0 1.9-.152 1.9-1.52v-8.73999c0-1.216.076-2.052-.076-3.306-.114-.798-.342-.95-1.862-.95h-.38c-.114 0-.152-.076-.152-.266v-.949999c0-.076.038-.19.19-.19.57 0 2.66.114 4.294.114l8.512-.038001c.38 0 .874-.075999 1.026-.075999.076 0 .152.075999.228.531999.076.342 1.14 3.61 1.216 3.876.038.152.038.228-.038.266l-.608.266c-.152.076-.266.038-.38-.114-.152-.152-2.052-2.28-2.736-2.85-.418-.342-1.026-.494-1.406-.494z"/><path d="m51.0528 8.68999v-1.748c0-.646-.076-3.496-.152-4.104-.038-.342-.38-.646-1.254-.646h-.912c-.114 0-.152-.076-.152-.266v-.912c0-.152001.038-.228001.19-.228001.266 0 3.116.114001 4.028.114001.646 0 3.154-.114001 3.99-.114001 3.496 0 6.156-.038 8.816 2.242001 1.672 1.482 2.622 3.306 2.622 6.118 0 2.88801-.532 4.63601-2.318 6.38401-2.698 2.698-7.448 2.546-8.512 2.546-.684 0-4.446-.076-5.168-.076-.494 0-3.344.114-3.534.114-.152 0-.19-.076-.19-.342v-.874c0-.114.038-.19.19-.19h1.368c.494 0 .798-.418.836-.608.076-.342.152-5.51.152-7.41001zm4.028-1.14v1.71c0 .304.038 4.25601.076 5.47201 0 .494.114.912.494 1.368.342.418 1.368.684 2.014.684 2.052 0 4.18-1.482 4.864-2.47.836-1.178 1.368-2.964 1.368-4.71201 0-2.052-.76-4.142-1.672-5.32-.836-1.102-2.85-2.242-5.016-2.242-.38 0-1.178 0-1.558.152-.38.19-.494.494-.532.912-.038 1.026-.038 4.028-.038 4.446z"/><path d="m38.3134 11.54h-5.51c-.19.456-1.368 3.496-1.482 3.914-.19.76 0 1.254.76 1.254h.76c.19 0 .266.114.266.266v.874c0 .152-.038.266-.228.266-.304 0-2.318-.114-2.926-.114-.722 0-2.622.114-2.964.114-.152 0-.152-.19-.152-.38v-.76c0-.152.076-.266.228-.266h.456c.456 0 1.102-.342 1.482-.76.266-.304 2.318-4.864 3.192-6.76397.266-.532 2.508-5.7 2.736-6.346.076-.228.152-.494 0-.608s-.304-.266-.304-.456c0-.228.228-.342.57-.418 1.292-.228 2.204-.684004 2.622-1.026004.152-.152.304-.2660001.57-.2660001.228 0 .304.1520001.418.4180001.532 1.520004 2.432 6.954004 2.888 8.474004.57 1.89997 2.204 6.38397 2.47 6.72597.494.684 1.14 1.026 1.786 1.026h.646c.152 0 .266.114.266.228v.836c0 .19-.076.342-.266.342-.456 0-2.47-.114-4.598-.114-.722 0-2.964.114-3.458.114-.266 0-.304-.19-.304-.38v-.76c0-.152.114-.266.228-.266h.646c.532 0 .646-.342.608-.722-.114-.646-1.14-3.686-1.406-4.446zm-4.94-1.33h4.636c-.152-.53197-1.52-5.24397-1.672-5.69997-.114-.38-.19-.532-.304-.532-.152 0-.228.152-.38.456-.114.304-2.09 5.396-2.28 5.77597z"/><path d="m.634064 2.00201v-1.025999c0-.114001.076-.19.19-.19.227996 0 2.355996.114 3.267996.114 1.026 0 2.356-.114 2.85-.114.228 0 .418.114.532.417999l5.39604 11.66599c.418-.988 1.748-3.76199 2.394-5.20599.532-1.216 2.774-5.966 2.926-6.384.114-.266.342-.379999.646-.379999 4.636 0 5.434-.114 5.7-.114.152 0 .19.113999.19.341999v.798c0 .152-.076.266-.266.266h-.912c-.608 0-.76.418-.798.798 0 .342-.076 6.08-.076 6.536 0 .49399.076 5.50999.076 5.85199 0 .722.228 1.33.836 1.33h1.33c.114 0 .19.076.19.19v.95c0 .152-.076.266-.266.266-.304 0-2.432-.114-3.8-.114-1.71 0-4.066.114-4.332.114-.152 0-.228-.114-.228-.342v-.836c0-.152.076-.228.228-.228h1.026c.76 0 1.026-.418 1.026-.76.038-.57.076-5.7.076-6.04199v-6.118h-.228c-.304.684-2.546 5.472-3.154 6.72599-.494.95-3.002 6.384-3.154 6.65-.114.228-.418.57-.684.57-.342 0-.532-.19-.684-.418-.114-.19-3.68604-7.86599-3.95204-8.39799-.532-1.064-1.71-3.876-2.204-4.94h-.19c-.038.646-.076 4.864-.076 5.13 0 .304-.038 5.43399 0 5.85199.152 1.368.684 1.748 1.482 1.748h.912c.152 0 .19001.114.19001.304v.874c0 .114-.03801.228-.228.228-.22801 0-2.014-.114-3.19201-.114-1.558 0-3.001995.114-3.229996.114-.19 0-.228-.076-.228-.342v-.836c0-.152.076-.228.19-.228h.797996c.798 0 1.368-.494 1.482-1.026.38-1.71.456-7.90399.456-8.32199 0-.342-.038-3.952-.038-4.294 0-.57 0-.874-1.596-.874h-.683996c-.114 0-.19-.076-.19-.19z"/></g></svg>