<?xml version="1.0" encoding="utf-8"?>
<!DOCTYPE svg PUBLIC "-//W3C//DTD SVG 1.1//EN" "http://www.w3.org/Graphics/SVG/1.1/DTD/svg11.dtd">
<svg version="1.1" id="Layer_1" xmlns="http://www.w3.org/2000/svg" xmlns:xlink="http://www.w3.org/1999/xlink" x="0px" y="0px" viewBox="980.063 300.118 40 40" enable-background="new 980.063 300.118 40 40" xml:space="preserve">
<path d="M990.699,302.502l0.045-0.044L990.699,302.502l0.178-0.133c0.089-0.045,0.133-0.089,0.222-0.134
	c-0.177,0.089-0.355,0.178-0.533,0.267l-0.088,0.133l0.178-0.089L990.699,302.502z M1012.079,304.147
	c-0.088-0.044-0.221-0.089-0.311-0.178v0.044l0.178,0.133l0,0l-0.045,0.044v0.045l-0.043,0.044l-0.133-0.133l-0.223-0.178v-0.044
	l-0.09-0.044l0.045,0.088l0.088,0.134l0.046,0.133l0.177,0.088l0.09,0.134v0.089l-0.046,0.044l0.089,0.089l-0.043,0.089l0.088,0.089
	l-0.045,0.089l-0.089-0.044l0.046,0.089l-0.046,0.045l-0.044,0.044l-0.177,0.045l-0.046-0.045l0.046-0.089l0.044-0.044v-0.089h0.133
	l-0.043-0.089v-0.133v-0.044v-0.044l-0.134-0.134l-0.089-0.133l-0.045,0.044l-0.088-0.044l0.043,0.089l-0.176-0.089l0.043,0.089
	l-0.133-0.133v0.088c-0.043,0-0.043,0-0.09,0l-0.133-0.133l-0.088-0.088l-0.133-0.089l-0.088,0.044l-0.223-0.089l-0.133-0.088
	l-0.133-0.089l-0.178-0.089l-0.088-0.089l-0.046-0.089l-0.087-0.089h0.087l0.089,0.044l-0.043-0.089h0.088v-0.044l-0.134-0.089
	v-0.044v-0.044h-0.044l-0.043,0.044v0.044l-0.134-0.044h-0.134l-0.221-0.044l-0.133-0.089l-0.267-0.089l0.044-0.044l0.133-0.045
	c0.044,0,0.044,0,0.09,0l0.087,0.089h0.179l-0.223-0.089l-0.223-0.089c-0.133-0.044-0.266-0.133-0.398-0.178l-0.222-0.044
	l-0.044-0.089h0.177v-0.044l-0.087-0.088l-0.046-0.045h0.046l0.043-0.044h0.09v-0.178l0.176,0.044l0.179,0.088l-0.046-0.044h0.133
	l0.047,0.044l0.133,0.045h0.043h0.044c-5.587-2.846-12.375-2.89-18.008-0.089c0.178-0.089,0.399-0.178,0.577-0.267l0.089-0.044
	h0.088l-0.133,0.089l-0.266,0.134l-0.044,0.044c-0.178,0.088-0.355,0.223-0.532,0.311l-0.089,0.089
	c-0.222,0.133-0.488,0.222-0.709,0.355h0.044l0.133-0.044l0.133-0.045l0.133-0.088l0.178-0.089l0.088-0.089l0.222-0.089h-0.044
	l0.133-0.088l0.311-0.178l0.133-0.089l0.31-0.089l0.133-0.134h0.044l-0.088,0.089l-0.267,0.134h0.044l0.133-0.089l0.223-0.089h0.177
	v0.089l0.134-0.134l0.266-0.134l0.178-0.044h0.178l0.221-0.044l0.09-0.044l0.266-0.089h0.133l0.266-0.089l0.311-0.045l0.089-0.044
	h0.266l0.045,0.044l0.354-0.089h0.177l0.09-0.044l0.221-0.089l0.311-0.044l0.133,0.044l-0.177,0.045h0.222l-0.045,0.044l0.133-0.044
	h0.355l0.222,0.044l0.043,0.044l-0.088,0.045c-0.222,0.089-0.399,0.133-0.621,0.133l-0.133,0.045c0.088,0,0.221,0,0.311,0.044
	l0.133-0.044v0.089h0.088l0.222-0.044h0.443v0.044h0.576l0.09-0.044h0.311h0.221l0.223,0.044l0.043,0.089l-0.133,0.044l0.133,0.134
	l0.222,0.044l0.178-0.133l0.221,0.044l0.267-0.044l0.354,0.088l0.133-0.044h0.267l-0.133-0.133l0.176-0.044
	c0.488,0.044,0.488,0.044,1.375,0.088l0.179,0.089l0.442,0.089h0.621l0.312,0.044l0.176,0.045l0.047,0.089l0.22,0.044l0.179-0.044
	h0.266l0.355,0.089h0.266l0.398,0.133l0.133-0.044l-0.221-0.089v-0.044l0.486,0.044h0.267l0.488,0.089l0.267,0.089
	c0.134,0.088,0.267,0.222,0.354,0.311c-0.133-0.088-0.22-0.222-0.354-0.311c0.354,0.088,0.666,0.177,1.021,0.311l0.134,0.089
	l0.133,0.044l-0.179-0.133l0.354,0.045l0.445,0.177l-0.046,0.045h-0.177l0.177,0.178v0.044h-0.133l-0.177-0.044l-0.223-0.044
	l-0.133-0.089l-0.177-0.044h-0.133l-0.133-0.045l0.044-0.133l-0.133,0.044l0.133,0.089v0.045c-0.09-0.089-0.179-0.178-0.266-0.267
	c0.087,0.089,0.222,0.178,0.309,0.267l-0.133,0.044h-0.222l0.222,0.089l0.223,0.133l0.133,0.044l0.09,0.089v0.044l-0.355-0.044
	l-0.355,0.133h-0.133l-0.177,0.178l-0.179,0.089v0.088l-0.355-0.133l-0.398,0.133l-0.133-0.088l-0.133,0.088l-0.266-0.044v0.133
	l-0.178,0.178l0.045,0.088l0.266,0.045l0.133,0.311h-0.177v0.178l0.134,0.089l-0.355,0.088v0.223l-0.312,0.044v0.223l-0.309,0.222
	l-0.133-0.178c-0.18-0.267-0.312-0.534-0.488-0.8v-0.267l0.133-0.133l-0.045-0.089l0.311-0.044l0.266-0.222l0.266-0.178l0.268-0.134
	v-0.266h-0.221l-0.047,0.133l-0.354,0.223l-0.268-0.223l-0.487,0.044l-0.399,0.312l0.223,0.133
	c-0.266,0.044-0.531,0.044-0.798,0.044v-0.134l-0.354-0.044l-0.223,0.089l-0.664-0.045l-0.711,0.045
	c-0.532,0.311-1.064,0.578-1.597,0.889l0.355,0.045l0.133,0.133l0.221,0.044l0.133-0.089h0.267l0.355,0.223v0.178l-0.133,0.222
	v0.267l-0.09,0.356l-0.398,0.355l-0.088,0.178c-0.311,0.223-0.621,0.489-0.932,0.712l-0.398,0.133h-0.178l-0.133-0.089l-0.4,0.178
	l-0.043,0.089h-0.09l-0.133,0.089l-0.088,0.089v0.178l-0.178,0.044l-0.045,0.045l-0.133,0.089l-0.178,0.044l-0.133,0.088
	l-0.045,0.134l-0.043,0.044l0.088,0.044l0.133,0.133l0.223,0.312l0.043,0.178l-0.043,0.311l-0.134,0.134l-0.267,0.044l-0.266,0.134
	l-0.266,0.043v-0.133l0.088-0.223l-0.088-0.266l0.221-0.044l-0.177-0.223l-0.133-0.045l-0.043,0.045l-0.09,0.044v-0.044v-0.133
	l-0.088-0.044l0.088-0.133l0.09-0.044v-0.045l0.088-0.133v-0.044l-0.178-0.045l-0.133-0.088l-0.398,0.088l-0.223,0.178l-0.31,0.089
	l0.177-0.133l-0.044-0.089l0.267-0.178l-0.134-0.134l-0.266,0.089l-0.355,0.178l-0.222,0.178h-0.266l-0.178,0.134l0.088,0.178
	l0.223,0.044v0.133l0.221,0.088l0.355-0.178l0.223,0.089h0.177v0.133l-0.399,0.089l-0.133,0.088l-0.311,0.133l-0.177,0.178
	l0.266,0.133l0.089,0.267l0.133,0.267l0.178,0.222l-0.045,0.223l-0.178,0.088l0.045,0.178l0.178,0.089l-0.089,0.222l-0.088,0.222
	l-0.222,0.089c-0.177,0.223-0.399,0.489-0.577,0.711l-0.31,0.356c-0.311,0.178-0.621,0.4-0.932,0.578l-0.354,0.045l-0.222,0.133
	l-0.044-0.044l-0.177,0.178l-0.443,0.178l-0.311,0.044l-0.133,0.356l-0.177,0.044l-0.044-0.222l0.088-0.134l-0.399-0.088
	l-0.133,0.044l-0.444,0.267l-0.266,0.311l-0.088,0.222c0.133,0.268,0.266,0.49,0.398,0.756l0.267,0.178l0.177,0.268l0.089,0.623
	l-0.133,0.534l-0.267,0.222l-0.354,0.222l-0.266,0.312l-0.399,0.311l-0.044-0.178l0.089-0.223l-0.222-0.222l-0.222-0.043
	l-0.133-0.178l-0.133-0.356l-0.222-0.134h-0.222l0.045-0.266h-0.266l-0.045,0.356c-0.088,0.266-0.177,0.533-0.31,0.8v0.267h0.177
	l0.088,0.311l0.044,0.312l0.133,0.178l0.178,0.044l0.133,0.178l0.044,0.043l0.177,0.222l0.133,0.223v0.223l0.044,0.178l0.044,0.133
	l0.044,0.223l0.089,0.089l0.133,0.311v0.133l-0.222,0.045c-0.222-0.178-0.399-0.355-0.621-0.489l-0.045-0.178l-0.177-0.222
	l-0.044-0.268l-0.089-0.311l0.044-0.268l-0.044-0.133l-0.088-0.133l-0.044-0.178c-0.088-0.134-0.178-0.222-0.266-0.356l-0.045,0.222
	l-0.044-0.178l0.044-0.222l0.089-0.311v-0.267l0.089-0.266l-0.133-0.178l0.044-0.355l-0.089-0.178l-0.044-0.4v-0.4l-0.088-0.268
	l-0.178,0.178l-0.31,0.268h-0.133l-0.133-0.089l0.133-0.4v-0.312l-0.133-0.355l0.044-0.133l-0.133-0.045l-0.133-0.267l-0.044-0.178
	v-0.178v-0.133l-0.044-0.178h-0.222v0.133l-0.133,0.178l-0.089-0.044l-0.044,0.044l-0.044-0.044l-0.088-0.044l-0.044,0.133H985.2
	l-0.266,0.089l-0.044,0.222l-0.177,0.178l-0.355,0.222c-0.177,0.223-0.31,0.4-0.487,0.623l-0.222,0.223c0,0.044,0,0.088-0.044,0.133
	l-0.089,0.089l-0.177,0.133l-0.133,0.088l-0.089,0.267c0,0.223-0.044,0.489-0.044,0.711l-0.133,0.312l-0.045,0.578l-0.088,0.043
	l-0.089,0.268l0.044,0.088l-0.177,0.089l-0.088,0.223l-0.089,0.088l-0.133-0.266c-0.044-0.268-0.044-0.534-0.089-0.801l-0.044-0.133
	l-0.044-0.312c0-0.222,0-0.4,0-0.622l-0.044-0.445c0.044-0.355,0.088-0.711,0.088-1.023c0.044-0.222,0.089-0.444,0.133-0.667
	l-0.222,0.223l-0.089-0.045l-0.044-0.355l0.088-0.134v-0.134l-0.044-0.266l-0.044-0.09l0.044-0.223v-0.222l-0.177,0.089
	l-0.133,0.045l-0.133,0.044l-0.089-0.044v-0.09l-0.044-0.044l0.133-0.356v-0.044l-0.044,0.044c-0.044,0.089-0.089,0.222-0.133,0.312
	c0.044-0.045,0.089-0.09,0.089-0.134v0.044c-0.044,0.045-0.044,0.134-0.089,0.178c-0.044,0.134-0.088,0.312-0.133,0.445v0.088
	l0.044,0.044v0.045c0,0.089-0.044,0.178-0.044,0.267v0.044c0,0.045,0,0.045,0,0.09c-0.044,0.088-0.089,0.178-0.133,0.266
	l-0.044,0.089l-0.088,0.267l0,0l-0.044,0.088l-0.044,0.178l-0.044,0.178v0.045c0,0,0,0-0.044,0l-0.044,0.133l-0.044,0.178
	l-0.044,0.09h-0.044l-0.044,0.088c-1.863,8.271,1.819,17.029,9.048,21.476c0.887,0.533,1.774,1.022,2.706,1.378l0,0
	c0.044,0,0.088,0.044,0.133,0.044c0.089,0,0.133,0.044,0.223,0.044h0.043c0.09,0,0.134,0.045,0.223,0.045h0.044l0,0l-0.089-0.045
	h0.089c0.044,0,0.133,0,0.221,0.045h0.045c0.178,0.044,0.354,0.133,0.532,0.223l0.044,0.044l0.089,0.045l0.133,0.044h0.043
	c0.09,0.044,0.223,0.089,0.311,0.134l0.133,0.044h0.089v-0.044c-0.045-0.045-0.133-0.045-0.178-0.089
	c-0.044-0.044-0.089-0.044-0.133-0.088c-0.089-0.045-0.133-0.045-0.223-0.089l0,0h0.045l0,0v-0.045
	c-0.045-0.044-0.088-0.089-0.178-0.089l-0.088-0.089v-0.045v-0.044l-0.045-0.044v-0.045v-0.044h0.089
	c0.044,0,0.044-0.044,0.089-0.044h0.088v-0.045l-0.133-0.089c0.089,0.045,0.178,0.045,0.266,0.089l0.134,0.045h0.088h0.045
	c0.088,0,0.133,0,0.221,0h0.045h0.088l0.133,0.044l0.044-0.044c0.044,0,0.089,0,0.089,0h0.088h0.133v-0.045v-0.044l0.045-0.045
	v-0.089h0.088l0.134,0.045c0.133,0.044,0.267,0.089,0.399,0.133c0.088,0,0.133,0,0.221,0c0.089,0,0.133-0.044,0.222-0.044
	l0.088-0.045l0.044-0.044h0.133l0.045-0.045l0.133,0.045l0.088,0.044l0.133,0.045h0.134l0.133,0.044l0.178,0.045h0.177h0.133
	l0.088-0.045l0.045-0.044h0.088c0.09,0,0.178,0.044,0.267,0.044l0.089-0.044c0.044,0,0.088,0,0.133,0c0.088,0,0.178,0,0.222,0.044
	c0.089,0,0.177-0.044,0.222-0.044c0.089,0,0.178,0,0.266,0c0.089,0,0.177,0,0.222-0.045l0.045-0.089v-0.044l0.088,0.044l0.045,0.045
	l0.044,0.044l0.044,0.045l0.133,0.044c0.355-0.044,0.71-0.044,1.021,0l0.09,0.045h-0.046l0.089,0.044
	c0.09,0,0.179,0.044,0.266,0.089c0.133,0.044,0.267,0.044,0.399,0.088h0.135l0.087-0.044l0.09,0.044l0.043,0.045l0.09,0.044
	c0.09,0,0.177,0,0.223,0.044v0.044l0.088,0.044l0.045,0.045h0.088h0.134h0.088h0.133h0.089h0.09l0.043,0.044l0.09,0.045v0.044
	l-0.09,0.044c-0.133,0.044-0.266,0.089-0.398,0.178h-0.133l-0.09,0.044h-0.133l-0.089,0.044c-0.087,0.044-0.133,0.044-0.22,0.044
	c-0.047,0-0.09,0.044-0.18,0.089c-0.043,0.044-0.087,0.044-0.133,0.089v0.044l-0.043,0.044v0.044h0.089v-0.089
	c-0.089,0-0.179,0-0.268,0.044h-0.134l-0.133,0.044l-0.087,0.045c-0.046,0-0.089,0.044-0.134,0.044l0.045,0.044l-0.045,0.044v0.045
	l0,0v0.044h0.045l-0.045,0.044h0.045h-0.045h0.134l0,0l0,0c-0.046,0-0.134,0-0.179,0.045c0.09,0,0.223-0.045,0.312-0.045h-0.046
	c0.046,0,0.09,0,0.133,0l0,0l0,0h-0.087c0.044,0,0.087,0,0.134,0h0.133c-0.046,0-0.09,0.045-0.133,0.045l0,0
	c0.354-0.045,0.708-0.045,1.062-0.089l0,0h0.09h0.043h0.046h0.088c0.179-0.044,0.4-0.044,0.577-0.089l0,0h-0.044l0,0l0,0
	l0.087-0.044l0.047-0.044c0.133-0.044,0.266-0.089,0.398-0.133l0,0l0.043-0.044c0.045,0,0.133,0,0.18,0l-0.09,0.044h0.09
	c0.132,0,0.22-0.044,0.354-0.044h0.045c0.133-0.044,0.222-0.044,0.355-0.089h0.087h-0.044c7.496-1.867,13.439-8.137,14.859-15.739
	C1021.084,316.419,1018.066,308.683,1012.079,304.147z M983.16,319.087L983.16,319.087l-0.089,0.133l-0.178,0.089l-0.088-0.267
	v-0.489l0.133-0.578l0.133,0.178l0.089,0.222l0.089,0.356L983.16,319.087z M1002.233,322.421l0.176,0.178l0.045,0.178l0.533,0.223
	l0.088,0.178l-0.311,0.045l0.09,0.223l0.309,0.222l0.223,0.356h0.176v0.133l0.268,0.045l-0.088,0.043l0.355,0.134l-0.047,0.088
	h-0.221l-0.088-0.088c-0.223-0.045-0.399-0.045-0.621-0.09l-0.266-0.222l-0.18-0.178l-0.221-0.222l-0.443-0.134l-0.266,0.09
	l-0.223,0.088l0.044,0.222l-0.267,0.133l-0.176-0.044h-0.355l-0.266-0.267l-0.355-0.089l-0.089,0.089h-0.443l0.133-0.267
	l0.223-0.088l-0.09-0.355l-0.133-0.268l-0.665-0.266l-0.267-0.044l-0.487-0.312l-0.089,0.178h-0.178l-0.088-0.134v-0.133
	l-0.223-0.178l0.355-0.133h0.222l-0.044-0.089c-0.178,0-0.311,0-0.488,0l-0.133-0.223h-0.267l-0.133-0.178l0.444-0.088l0.177-0.134
	l0.533,0.134l0.044,0.133l0.088,0.533l0.355,0.223l0.266-0.355l0.398-0.223c0.09,0,0.223,0,0.311,0
	c0.178,0.089,0.355,0.133,0.532,0.223l0.356,0.044l0.577,0.222l0.62,0.178L1002.233,322.421z M1000.769,305.081l0.223-0.089
	l-0.09-0.089l0.09-0.044c0.043,0.133,0.133,0.222,0.176,0.356v0.222l0.133,0.222l0.267,0.4l-0.399-0.089l-0.133,0.355l0.266,0.267
	v0.178l-0.221-0.133l-0.134,0.133l-0.044-0.222v-0.223l-0.043-0.267l0.043-0.178v-0.312l-0.133-0.223V305.081z M1000.503,307.438
	h0.31l0.089-0.355l0.09-0.178l0.309,0.267l0.223,0.089l0.177,0.045l0.179-0.089l0.088,0.267l-0.399,0.089l-0.221,0.267l-0.444-0.178
	l-0.133,0.267h-0.311l-0.045-0.267L1000.503,307.438z M997.486,310.061l0.178-0.178l0.311-0.133l0.221-0.178l0.577-0.089l0.31,0.044
	l0.311-0.489l0.177,0.133c0.223-0.133,0.4-0.267,0.621-0.355l0.179-0.311l-0.046-0.312l0.134-0.178l0.311-0.044l0.177,0.356v0.222
	l-0.267,0.267v0.267l-0.088,0.222l0.045,0.134l-0.133,0.178l-0.399,0.133h-0.533l-0.443,0.311l-0.221-0.089v-0.222l-0.533,0.044
	l-0.354,0.133h-0.354l0.311,0.223l-0.223,0.489l-0.221,0.134l-0.134-0.089l0.089-0.267l-0.178-0.089l-0.088-0.178L997.486,310.061z
	 M996.865,321.888l0.355,0.088l0.133,0.267l-0.267-0.133l0,0l-0.267-0.045l-0.177,0.045h-0.222l0.088-0.178L996.865,321.888z
	 M996.244,320.332l0.133-0.133l0.045,0.178l0.222,0.045l0.044,0.133v0.311l0,0l-0.177-0.043l-0.044,0.222l0.133,0.178l-0.089,0.044
	l-0.133-0.222l-0.088-0.444L996.244,320.332z M996.023,323.8l0.088-0.045l0.133,0.045l-0.133,0.088
	c-0.178,0.089-0.399,0.178-0.621,0.222l-0.178,0.268l-0.266,0.088l-0.044-0.044v-0.134l0.177-0.178l0.311-0.133l0.045-0.089
	l0.266-0.088H996.023z M995.801,317.886c0.045,0.178,0.045,0.355,0.089,0.533l-0.134,0.356l-0.133-0.356l-0.178,0.178l0.09,0.268
	l-0.09,0.178l-0.398-0.178l-0.089-0.268l0.089-0.178l-0.222-0.178l-0.088,0.134h-0.178l-0.266,0.178l-0.044-0.089l0.133-0.311
	l0.222-0.09l0.178-0.133l0.133,0.133l0.266-0.088l0.045-0.134h0.221v-0.266l0.267,0.178L995.801,317.886z M995.092,317.085
	l-0.045,0.312l0,0l-0.133,0.133l-0.089,0.223l-0.088,0.088l-0.178-0.222l0.089-0.089l0.089-0.089l0.045-0.222h0.177l-0.044,0.222
	L995.092,317.085z M995.49,316.642l0.089,0.133l0.089,0.355l-0.266-0.088v0.133l0.088,0.223l-0.178,0.043v-0.222h-0.088
	l-0.045-0.222l0.178,0.044v-0.134l-0.178-0.266H995.49z M993.805,315.352l0.133,0.089l0.045-0.533l0.133-0.312h0.178l0.178,0.089
	l0.088-0.089l0.045,0.089l-0.045,0.133l0.089,0.223l-0.089,0.268l-0.177,0.133l-0.088,0.355l0.044,0.268l0.177,0.044l0.133-0.044
	l0.399,0.178l-0.044,0.178l0.089,0.088l-0.045,0.178l-0.266-0.178l-0.045-0.222l-0.089,0.133l-0.222-0.178l-0.311,0.044
	l-0.178-0.089l0.045-0.133l0.088-0.09l-0.088-0.088l-0.045,0.133l-0.133-0.178l-0.044-0.133L993.805,315.352z M993.672,320.91
	l0.045-0.133l0.266-0.268l0.266,0.09l0.399,0.044h0.399l0.311-0.267l0.045,0.089l-0.223,0.356l-0.266,0.088l-0.311-0.045
	l-0.533,0.045l-0.266,0.045l-0.044,0.267l0.31,0.312l0.178-0.178l0.621-0.134l-0.044,0.178l-0.133-0.044l-0.133,0.222l-0.266,0.133
	l0.311,0.444l-0.045,0.134l0.311,0.4v0.222L994.691,323l-0.177-0.223l0.133-0.266l-0.311,0.133l-0.044-0.133l0.044-0.134
	l-0.267-0.178v-0.311l-0.221,0.088c0.044,0.312,0.044,0.578,0.088,0.89l-0.221,0.044l-0.134-0.089l0.089-0.311l-0.044-0.312h-0.133
	l-0.133-0.222l0.133-0.222l0.045-0.267L993.672,320.91z M994.781,323.711l-0.045,0.178l0,0l-0.443,0.089l-0.443-0.045
	c0-0.044,0-0.088,0-0.133l0.266-0.089l0.222,0.089l0.222-0.045L994.781,323.711z M993.583,323.933l-0.354,0.089l0,0l-0.222,0.044
	h-0.177l0.089-0.178h0.178l0.088-0.133l0.133,0.089l0.178-0.044L993.583,323.933z M992.962,317.841l0.221-0.222l0.223-0.222
	l0.177-0.356l0.044,0.266l-0.221,0.223l0,0l-0.178,0.223l-0.443,0.355L992.962,317.841z M988.881,322.822l-0.399-0.267l-0.133-0.222
	l-0.266-0.267l-0.177-0.267l-0.267-0.489l-0.266-0.267l-0.089-0.311l-0.133-0.267l-0.266-0.222l-0.133-0.312l-0.222-0.178
	l-0.267-0.355l0.044-0.133h0.178l0.399,0.044l0.222,0.311l0.221,0.223l0.178,0.133l0.266,0.355h0.267l0.266,0.223l0.178,0.267
	l0.222,0.133l-0.089,0.267l0.178,0.134h0.088l0.044,0.222l0.133,0.178l0.222,0.044l0.177,0.222l-0.044,0.534
	c0,0.178,0.044,0.356,0.044,0.534h-0.311L988.881,322.822z M992.164,323.978L992.164,323.978l-0.355-0.133h-0.266h-0.311
	l-0.311-0.044l-0.355-0.134l-0.221-0.044l-0.089,0.044l-0.532-0.134l-0.044-0.133h-0.266l0.177-0.311h0.354l0.267,0.133h0.133
	l0.044,0.133h0.577l0.044-0.133l0.577,0.133l0.133,0.223l0.488,0.045l0.399,0.178L992.164,323.978z M992.519,322.244l-0.354,0.178
	l-0.133-0.223h-0.223l-0.177-0.133l-0.355,0.133l-0.133-0.178l-0.222,0.045l-0.266-0.045l-0.089-0.444l-0.177-0.089l-0.088-0.267
	l-0.044-0.312l0.044-0.311l0.177-0.223l0.221,0.133l0.223-0.088l0.044-0.312l0.133-0.088l0.355-0.09
	c0.133-0.178,0.266-0.311,0.354-0.488l0.133-0.133l0.267-0.178l0.267-0.267l0.178-0.268h0.133l0.177,0.178v0.134
	c0.177,0.088,0.311,0.133,0.487,0.178l-0.043,0.133h-0.223l0.045,0.178l-0.222,0.133l-0.177,0.312l0.222,0.311l-0.044,0.178
	l0.355,0.312l-0.399,0.044l-0.089,0.223l0.044,0.312l-0.311,0.222v0.356l-0.089,0.534V322.244z M1002.366,333.582l-0.09,0.089
	l-0.043,0.178l-0.09-0.045l-0.178,0.178h-0.045h-0.133l-0.133-0.222v-0.178l-0.133-0.222v-0.134l0.177,0.045l0.222,0.089
	c0.133-0.044,0.223-0.044,0.355-0.089h0.133L1002.366,333.582z M1004.272,330.158c-0.09,0.134-0.133,0.268-0.176,0.4v0.178
	l-0.09,0.178l-0.178,0.267l-0.221,0.089l-0.133,0.222l-0.09,0.133l-0.133,0.223l-0.133,0.134l-0.09,0.178l-0.043,0.178v0.089
	l-0.179,0.089h-0.31l-0.223,0.089l-0.133,0.089l-0.178,0.089l-0.178-0.134l-0.133-0.044l0.044-0.133l-0.133,0.044l-0.221,0.178
	c-0.133-0.045-0.222-0.089-0.354-0.089h-0.133l-0.355-0.044l-0.179-0.178l-0.043-0.178l-0.044-0.133l-0.133-0.088l-0.266-0.045
	l0.088-0.133l-0.088-0.178l-0.133,0.178l-0.222,0.044l0.133-0.134l0.045-0.133l0.088-0.134v-0.222l-0.221,0.222l-0.178,0.089
	l-0.089,0.223l-0.221-0.089v-0.134l-0.178-0.178l-0.133-0.178l0.044-0.045l-0.354-0.177h-0.178l-0.266-0.133l-0.488,0.044
	c-0.222,0.045-0.443,0.134-0.666,0.178h-0.266l-0.266,0.133l-0.223,0.089l-0.043,0.134l-0.089,0.088h-0.221l-0.177,0.044
	l-0.223-0.044l-0.177,0.044h-0.177l-0.133,0.134h-0.088l-0.089,0.089l-0.089,0.089c-0.133,0-0.222,0-0.355,0l-0.31-0.178
	l-0.133-0.045l-0.043-0.133l0.133-0.044l0.044-0.044l-0.044-0.089v-0.178l-0.089-0.177l-0.221-0.267l-0.133-0.222l-0.045-0.134
	l-0.133-0.178l-0.045-0.088l-0.133-0.09l-0.088-0.266l-0.222-0.222l-0.088-0.134l0.133,0.134l-0.178-0.268l0.178,0.089l0.088,0.088
	l-0.044-0.133l-0.177-0.223l-0.045-0.088l-0.089-0.089v-0.178l0.044-0.089v-0.133l-0.044-0.178l0.089-0.223l0.088,0.223l0.09-0.223
	l0.221-0.088l0.133-0.134l0.222-0.133l0.133-0.044l0.089,0.044l0.222-0.133l0.178-0.045l0.044-0.089l0.088-0.044h0.178l0.311-0.09
	l0.133-0.133l0.045-0.178l0.177-0.178c0-0.089,0-0.178,0-0.312l0.177-0.267l0.177,0.267l0.133-0.044l-0.266-0.045l0.089-0.133
	l0.134,0.044v-0.222l0.177-0.178l0.044-0.134l0.133-0.044v-0.089l0.134,0.045v-0.09c0.089-0.044,0.177-0.044,0.31-0.088l0.267,0.133
	l0.177,0.178h0.177l0.223,0.045l-0.089-0.178l0.133-0.268l0.134-0.088l-0.045-0.089l0.133-0.178l0.178-0.133l0.178,0.044
	l0.266-0.044v-0.178l-0.221-0.089l0.177-0.044l0.222,0.089l0.178,0.133l0.266,0.09l0.088-0.045l0.222,0.089l0.178-0.089l0.133,0.045
	l0.088-0.045l0.133,0.178l-0.089,0.178l-0.133,0.133h-0.133l0.044,0.134l-0.089,0.178l-0.133,0.178l0.045,0.088l0.266,0.178
	l0.266,0.089l0.178,0.088l0.222,0.178c0.043,0,0.043,0,0.088,0l0.178,0.089l0.044,0.089l0.355,0.089l0.222-0.089l0.044-0.178
	l0.09-0.134l0.043-0.178l0.09-0.267l-0.046-0.178l0.046-0.089l-0.046-0.178l0.046-0.223l0.043-0.044l-0.043-0.088l0.088-0.178
	l0.045-0.178v-0.089l0.133-0.133l0.089,0.178v0.223l0.087,0.044v0.134l0.134,0.178v0.178v0.133l0.089,0.268l0.223-0.134l0.088,0.134
	l0.135,0.133l-0.047,0.133c0.047,0.134,0.047,0.267,0.09,0.445l0.09,0.045l0.087,0.266l-0.044,0.178l0.09,0.222l0.309,0.178
	c0.134,0.089,0.267,0.178,0.4,0.267l0.045-0.089l0.176,0.178l0.09,0.312l0.133-0.045l0.09,0.133l0.087-0.044v0.311
	c0.089,0.089,0.222,0.223,0.312,0.312l0.222,0.222l0.044,0.223v0.178l-0.044,0.178l0.088,0.267L1004.272,330.158z M1004.583,322.599
	l-0.133,0.223l-0.178,0.045l-0.044,0.088c-0.132,0.045-0.222,0.09-0.354,0.178c-0.045,0-0.133,0-0.179,0l-0.267-0.088l-0.176-0.09
	l0.043-0.088l0.312,0.044l0.176-0.044l0.045-0.178h0.045l0.043,0.178l0.18-0.045l0.086-0.133l0.18-0.134l-0.046-0.178h0.222
	l0.045,0.045V322.599z M1008.354,333.626c-0.134,0.089-0.267,0.178-0.355,0.267l-0.179,0.089v0.133h-0.177l-0.223,0.089
	l-0.133,0.133l-0.266,0.222c-0.133,0.045-0.223,0.089-0.355,0.178h-0.176l-0.09-0.089h-0.223v-0.089l0.18-0.178l0.398-0.223
	l0.176-0.044c0.134-0.044,0.312-0.133,0.445-0.222l0.176-0.133l0.18-0.178l0.133-0.044l0.088-0.133l0.221-0.089
	c0,0.089,0,0.133,0,0.222l0.223-0.089v0.089L1008.354,333.626z M1009.596,332.87l-0.134,0.133h-0.178l-0.089,0.089l-0.044,0.089
	c-0.133,0.089-0.266,0.222-0.398,0.355l-0.223,0.089v-0.044l-0.043-0.089l0.222-0.178v-0.133l-0.179-0.089l0.044-0.089l0.222-0.088
	l0.133-0.178l0.09-0.178v-0.178l0.044-0.044l-0.134-0.134l-0.087-0.222v-0.178h0.087l0.047,0.133l0.133,0.089l-0.046,0.222
	l0.046,0.267l0.087-0.178l0.089,0.089l-0.043,0.178l0.133,0.089l0.133,0.044l0.177-0.089l0.089,0.045L1009.596,332.87z
	 M1012.433,326.601L1012.433,326.601c0-0.045,0-0.089,0.047-0.133h0.043L1012.433,326.601z"/>
</svg>
