<svg xmlns="http://www.w3.org/2000/svg" width="650" height="650" viewBox="-1036.694 363.562 650 650"><path d="M-566.33 677.546l-1.92-2.56-.64-1.28v-2.56l-1.28-1.28h-4.48l-2.56-2.56-2.56-.642.64-.64 3.2-.64-1.28-3.2 2.56-1.92 3.2-.64-1.28-4.48-1.278-1.92-3.84 1.28h-3.2l-3.2 3.84-2.56 2.56-.64 2.56-3.2 1.92-2.56 5.76 4.478 2.562.642 2.56c2.56 1.92 5.12 3.84 8.32 5.76l2.56 2.562 1.92-.64 1.92.64-2.56 1.28v5.118l-1.28 1.92.64 2.562 1.92 2.56 3.84-.64 2.562 1.28 5.12-1.28 5.12-3.2v-1.28l-1.92-2.56-1.28-5.12h-1.92v-3.2l-1.92.642-1.283-5.124 3.84.64 2.565-2.56-2.562-1.28-1.92-2.56-2.56 2.56.64 3.2zm-249.6-261.12c-1.28.64-2.56.64-3.2 1.28l-2.56 2.56 2.56-1.92 3.2-1.92zm-7.04 3.2c-.64 0-1.92.64-2.56 1.28-.64 0-1.92 1.28-3.84 1.92l-1.92 1.28c3.2-1.28 5.76-3.2 8.32-4.48zm398.08 269.44c-.64-2.56-1.28-5.76-1.92-8.32l-1.28-2.56c0 3.2-.64 7.04-1.28 9.6l-.64 1.28-.64 1.92v-5.76l-1.28-2.56-1.92-2.56v-1.92.64l-2.56-1.28-.64-.64-.642-1.92-.64-1.28-1.28-1.278-1.28 2.56.64 1.28v2.56l-.64.642v1.277l-.64.643-.64.64v1.92l-.643 1.28-1.92 3.84.64 2.56-.64 3.84-2.56 6.4-.64 8.96-1.28 4.48-1.92 5.12v1.92c-.64 2.56-1.92 3.84-2.56 6.397l-1.28 1.28-.64 3.84 1.277 4.48.642 3.2-.642 5.12.642 7.04-1.28 1.92-1.28 3.84.64.64-2.56 3.2-.64 3.2-1.28 2.56-2.56-1.92c-.642-2.56-1.922-5.12-2.562-8.32l-1.28-1.277-.64-1.92-1.28-4.48-.64-2.56-3.2-3.2c-1.28-3.84-2.562-8.32-3.84-11.52l-1.28-5.122-1.28-3.197-3.84 5.76-2.56 1.28-5.12-2.56 1.28-2.56-1.28-1.28-4.48-1.28-2.56.643-1.92-2.56-3.2-1.92-5.76 4.48c-3.2 2.56-7.04 3.84-10.24 6.397l-7.04 2.56-2.56 1.92-3.84 1.28-2.562-4.48h-1.914l-3.2 1.92-3.2 3.2-5.118.64-4.48-1.92h-3.84l-3.2-3.2-3.84-4.48-1.92 1.92-2.56-.64-1.28 2.56-2.562.64 1.28 1.92v.643c1.28 2.56 2.56 3.84 3.84 6.398l2.562.64 1.278 1.28 2.562 1.28.64 1.92v1.28l.64 1.28 1.28.64.64 1.28.642.64-.64-2.56.64-2.56 1.28-1.28 1.28 1.28.64 2.56-.64 2.56 1.278 1.28.64-.64.64 1.28 2.563-1.92c1.92-.643 3.84-1.283 5.76-1.92 2.564-3.84 4.48-7.68 6.4-11.52l.64-1.924h.64v1.922l-.64 1.277 1.28 3.2 2.56 2.562 2.565.64 2.56-.64c1.28 1.28 2.562 1.92 3.2 2.56h1.28v1.28c-.642 1.92-1.28 2.56-1.28 4.48l-1.28 2.56-1.28 3.2-1.92.64-.64 1.28-.64 2.56.64 2.562-.64.64c-.64 0-1.28.64-1.92.64l-2.56 2.56v2.56l.64-.64-1.28.64-1.28 1.92v1.92l-1.92 1.92-2.56.643-2.562 2.56-1.92 1.28-2.56 2.56-.64 2.56v1.92l-3.842 2.56-6.397 4.48-3.2 3.84-1.92.64h-1.28l-2.56 2.562-2.562 1.92-3.2 1.28-1.92 1.92-1.277 1.278-1.28.643-.64 1.28-2.562.64-1.28 1.28-2.56.636v-7.04l-1.28-.64-.64-2.562-1.28-1.28 1.28-.64-.64-1.92.64-1.28-.64-1.92-.64-1.92-1.28-1.278-.64-1.92h-1.92l-2.56-2.56-1.92-3.84-3.2-2.562h-2.563l-3.2-3.2-.64-2.56v-2.562l-2.56-4.48-2.562-1.278-2.56-.64-1.92-2.562v-1.28l-1.922-2.56-1.278-.64-2.562-2.562-5.76-5.76-2.56.64.64-2.56v-1.92l.64-1.92-1.28 2.56v3.2l-1.278 2.56-1.28 1.28c-1.28-1.28-2.56-1.92-3.84-2.56l-3.84-5.76-.64.64 2.56 4.48 3.2 3.84 3.84 6.4 1.92 2.56 1.92 2.56 4.48 3.84h-.642l.64 2.562 5.762 2.56 1.28.642 1.92 3.84-1.28 1.28 1.28 4.48 1.92 4.478c1.92.64 2.56 1.28 4.478 1.92l2.562 4.48 1.92 3.2 2.56 1.92 6.4 2.56c2.56 1.92 4.48 2.56 6.4 4.48l2.56.64 1.28 1.28v1.92l-2.562 2.56c1.28.642 2.562.642 3.2 1.28l1.28 1.92 2.56 1.28 2.562-.64 3.84-2.562 4.48-1.92 3.84-2.56 2.56-1.28 1.92-1.28c1.28-.64 2.56-1.278 3.84-1.92l1.92-1.278 2.563-1.28 1.92-2.56 1.92-.64v1.28l-.64 2.56v3.2l-.642 1.92-1.92 4.48c-1.92 3.84-2.56 7.68-4.48 11.52l-3.84 7.04c-2.56 3.84-5.76 8.32-8.96 12.8l-4.48 4.48c-3.84 2.56-7.68 6.397-10.88 8.96l-7.68 5.12-1.28 2.56-1.28 1.28-3.84 1.278-1.28 1.92-1.918.645-1.28 2.56-1.92 1.92-1.28 2.56-1.92 1.92-2.56 4.48v1.92l2.56.64v.64l-1.92 2.56v1.28l-.64 1.92 1.28 1.92 1.278 2.56h1.92l1.28-1.28-.64 2.564v2.56l-1.28 4.48.64 1.278-1.92 2.56-2.56 2.563-2.56 2.56c-2.562 1.282-6.4 2.562-8.962 3.84l-5.76 3.202h-1.92l-3.2 2.56-1.92.642-.64 1.92 1.92 1.276.64 1.28v.64h.642l-.64 2.562-1.28 1.28h.64l-1.28.64-1.92 1.28c-2.56 1.278-5.76 2.56-8.96 2.56l-2.56 1.28v.64h1.28l-.64 1.28-1.92 1.92-1.28 1.28-1.28 1.28c-1.28.64-2.562 1.278-3.84 1.92l-2.562 1.278-1.92 1.28-2.56 1.28c-2.562 1.28-5.12 2.56-8.32 3.2l-3.2.64-3.84 1.28h-1.92l-.64.64h-2.562l-1.92.64h-2.56l-2.56.642h-1.92l-3.84.64-3.2.64-2.56.64h-1.92l-1.923-.64h-1.28l-1.92-.64-.642-.64v-.643l-1.278-1.28h1.277v-1.278l-1.278-1.92c-1.92-1.28-3.2-2.56-5.12-3.2l-2.56-1.28-1.924-1.277-1.28-1.923-1.278-1.28-1.92-2.56v-2.56l-.643-1.28-1.92-1.28-3.2-3.198-2.56-2.564-1.28-1.92-3.84-2.56-.64-1.28-.64-1.92.64-2.56 1.92-2.562v-1.28l1.92-2.56 1.28-1.28 2.56-1.92 1.92-1.28.64-2.56v-1.92l-1.92-1.28c-1.28-1.28-1.92-2.56-2.56-3.2v1.276l1.92-1.278c-1.28-1.92-1.92-3.2-2.56-5.12l-2.562-2.56.64-.64-.64-1.28-1.92-1.92-3.84-3.84-5.12-3.842-3.2-2.56-2.56-3.84v-1.28l1.278-1.28 1.28-2.56 1.28-2.56-1.28-.642 1.92-3.84.64-2.56-1.92-2.562-2.56-.64-1.28-1.92-1.277-.642v-1.28l-5.12 1.28-1.92-.64-1.92.64-3.834-.637-5.12-3.2-1.92-2.56-3.198-2.56c-2.562-1.28-5.762-1.28-8.32-1.92h-7.68l-8.32 1.278-2.56.64h-4.48l-4.48-2.56h-2.56l-3.2-1.92-2.56-.64-5.762-.642c-2.56 0-5.12.64-8.32.64l-1.28-.64-1.28-.64-4.477-3.2-4.48-3.84-3.84-3.2-3.198-3.84-1.28-.64-3.84-2.56-2.562-3.2-.64-1.92-.642-3.2-1.92-2.56-1.28-2.56-1.276-1.28-1.28-1.28-.64-1.92-.642-1.28-1.277-1.28-1.92-1.92-1.922-.64-1.277-1.92v-.64l-1.28-1.28c-.64-1.92-.64-2.56-.64-4.48l.64-1.92-1.28-3.84-1.92-2.56h1.92l2.562-2.56 1.278-1.92V782.5l1.28-1.92 1.28-3.84v-7.04l.64-1.92-.64-2.555-1.92-2.56c.64-1.28.64-2.562 1.28-3.2l1.92-.64 1.92-1.92v-1.92l1.92-2.562 2.56-1.92h1.92l1.92-2.56.64-2.562 1.92-2.56 2.56-.64 3.2-3.2 2.563-1.28 3.84.642 3.84-1.92 2.56-.645 3.84-2.56v-3.2l2.56-3.2 1.28-2.56 3.2-2.56 4.48-.642 3.2-1.28 3.84-3.84 1.92-2.56 3.2.64 2.56 2.562 3.84.64 4.48 2.56 1.92.643 4.48-1.92h5.117l3.2-1.282 4.48-.64c5.12 0 10.24.64 15.36 1.278l2.56 1.92 4.48-1.277 5.12.637 1.92 1.28h2.562l5.12-1.28 3.2.64v2.562l3.84-1.28v1.28l-2.563 2.56v2.56l1.92 1.28-.64 3.84-3.2 2.56.64 2.56h2.562l1.28 2.56 1.92.64 5.76 1.92 1.92-.64 3.84 1.28 6.4 2.56 2.56 3.84c3.2.645 7.68 1.92 10.88 2.564l5.12 2.56 2.56-1.278 2.56-2.562-1.28-3.2 1.28-2.56 3.2-2.56 3.2-.642 6.4.64 1.92 1.92h1.92l1.92.643h4.48l1.28 1.28 6.4-.642c3.84.644 7.68 1.28 11.52 2.563l3.2-1.92 1.92-1.922 3.84-1.28h3.2l1.28 2.563 1.28-1.92 3.2.64 3.2-.64 2.56-1.92 1.28-1.92h-.64l1.276-2.56.64-3.2.64-1.28 1.28-3.84 1.92-3.2-1.28-3.2.642-2.56-2.56-3.2 1.28-2.562-2.563 1.28-3.2-.64-5.76 4.48-6.4 1.92-3.84-1.92h-3.84l-.64 2.56-2.562 1.28-4.48-1.92-4.478.64-2.562-3.84-3.2-2.56 1.92-3.84-2.56-1.92 4.48-4.48 6.398-.64 1.28-3.2 8.32-.64 4.48-3.2 4.48-2.56 7.04-1.28 7.68 1.92 6.4.64 4.48-1.92 3.2-.64 3.84-3.2v-2.56l-3.2-3.2-2.56-1.28h-2.564l-1.92-1.28-5.76-2.56-4.48-.64-3.84-1.92 2.563-1.28 2.56-4.48-2.56-1.28 5.12-2.56v-1.28l-3.2.64-3.2.64-2.563 1.92-3.84 1.28-2.56 2.56.64 2.56 2.562.643 3.84-1.28-.64 2.562-3.84 1.28-5.12 3.198-2.56-.64.64-2.56-4.48-.643.64-1.277 3.2-2.562-1.28-.64h-6.4l-.64-1.92-3.2 1.92-1.28 2.56-2.56 3.84v1.28l-1.92 1.28-1.28-.64-.64 5.76-1.92 2.56-1.28 3.2 1.92 2.563.64 1.92 3.84 1.28-.64 1.277-5.12.64-1.92 1.92-3.2 2.563-1.92-2.56v-1.28h-5.12l-4.48 1.92 2.56 2.56-2.56 1.28h-2.56l-2.563-2.56v.64l1.28 2.56 2.56 2.562-1.92 1.28 2.562 1.92 2.56 1.278v2.562l-3.2-1.28 1.28 2.56-2.56.64 1.92 3.84h-2.563l-3.198-1.92-1.92-3.198-1.28-2.56c-1.28-1.92-2.56-2.562-3.84-4.48l-.643-1.28-.64-.64v-1.28l-3.2-2.56-.64-1.92.64-2.562.64-1.92-.64-.64-1.28-.642-1.278-1.92c-1.92-1.28-3.84-1.92-5.76-2.56l-2.563-1.92-3.84-.642-3.84-2.56 1.278-.64-1.92-1.92v-1.92l-2.56-.64-1.28 1.92-1.28-1.92v-1.92l1.28-.64-3.2-.64-3.2 1.92v2.56l-.64 1.28 1.28 2.56 3.84 2.56 2.56 3.84 4.48 3.84h3.2l1.28 1.28-1.28 1.28c2.56 1.28 4.48 2.56 7.04 2.56l3.84 2.56.64 1.28-.64 1.92-2.56-3.2-3.84-.64-1.922 2.56 3.2 1.92-.64 2.56h-1.92l-1.92 3.84-1.92.643v-1.28l1.278-2.56 1.28-1.28c-1.28-1.92-2.56-3.197-2.56-5.117l-1.92-.643-1.28-2.56h-3.2l-4.48-1.92-3.2-.642-3.2-2.56-3.84-3.2-2.56-2.56-1.28-4.48-2.56-.64-3.2-1.92-.64.64-2.56 1.92h-1.92l-4.48 2.562-8.32-2.56-6.4.64-1.277 2.56v2.56l-5.113 2.56h-5.76l-.642 1.92-2.56 1.92-2.56 3.2 1.28 2.56-2.56 1.28-1.28 2.56h-3.2l-4.48 3.2c-3.2-.64-6.4-1.28-9.602-2.56l-2.56 1.278-1.92 1.28-2.562-1.28-1.277-1.92-.642-2.56-4.48-1.28-1.92.64-2.56-1.278h-1.92l1.28-3.2v-2.56l-1.28-1.28-.64-1.92 1.278-2.562 1.922-1.28.64-1.92 1.92-2.56.64-1.92-1.276-1.92v-1.92l1.28-2.56-1.28-2.562 6.396-1.92 4.48 2.562 5.12 1.28 3.84 1.92 3.2.642 7.04 1.92 2.56-2.562 2.563-8.318-3.2-5.762-2.564-2.56-5.76-2.56.64-3.2h5.12l6.4 2.56v-5.12l3.2 2.56 9.6-1.92 1.92-3.2c2.562 0 4.48-.64 7.04-.64l2.56-1.28 4.48-6.4 5.76-1.28 3.2.642.64-1.28h4.48l.64 1.28 2.563-1.92-.64-1.92v-2.56l-1.28-2.56.64-4.48.64-1.28 1.28-1.28h3.2l1.28-1.28 2.56-1.28-.64 2.56-1.28 1.28.64 1.28 1.92.64-1.28 1.92-1.28-.64-2.56 1.92.64 2.56v1.92l3.2 1.28v1.92l3.84-.64 2.56-1.28 3.84 1.92 1.923 1.92 2.56-1.28c3.2-1.28 7.04-2.56 10.24-3.2l3.2.642.64 1.28h3.2l.64-1.92 5.12-1.92v-8.32l1.92-2.56 3.2-1.92 2.56 3.2h2.562c0-2.562.64-3.84.64-6.4l-1.28.64-2.56-1.92-.64-2.56 3.84-1.92 3.84-1.28 3.2.64 3.2-.64 3.197-2.56-3.84-1.92-3.84 1.92-5.76 2.56-5.12 1.28-1.92-3.2-3.2-1.28.64-4.48-1.92-3.84 1.28-2.56 2.562-2.56 7.037-5.12 1.92-1.28-.64-1.92-3.2-1.28-5.117 1.92-2.563 2.56.64 2.56-4.48 3.2-5.76 3.84-2.56 6.4 2.56 2.56 3.2 2.56-3.203 5.762-3.2 1.28-3.2 7.68-2.56 3.84-4.48-.64-2.56 3.2h-3.84l-1.28-4.48-1.92-4.48-2.56-6.4-2.56-2.56-7.68 4.48-4.48.64-4.48-2.56v-5.76l.64-10.24 3.2-2.56 8.96-2.56 7.04-3.84 14.08-14.08c4.48-2.56 8.32-5.76 12.8-8.32l5.76-2.56h4.48l3.84-3.84h4.48l4.48-1.28 8.318 2.56-2.56 1.28 3.2 2.56 2.56-1.92 5.12 1.92 7.68-.64 11.52 2.56 3.2 1.92 1.28 2.56-2.56 2.56-3.84 2.56c-3.842 0-8.96-.64-13.44-1.278l-1.92 1.28 5.12 2.56 1.92 6.4 3.84.64 2.56.64v-2.56l-2.56-1.92 1.92-1.92 7.68 1.28 2.56-1.92-2.56-1.92 5.12-5.76 2.56-.642 2.56.64.643-3.2-2.56-1.92v-2.56l-3.84-1.92 7.68-.64 2.56 1.92-2.56 1.92 1.28 2.56 2.56.64 3.2-2.56-.64-2.56 3.84-3.2 6.4-6.4 1.92-.64-1.92 2.56 2.56-.64.64-1.92 3.84-1.92 2.562-2.56 3.84 1.28.64-3.2-3.2-1.28v-1.92l7.04-2.56 3.2-.64h9.6l-.64-2.56-3.2-.642v-1.92l-2.56 1.28-.64-2.56-3.2-2.56-1.28-1.28.64-5.12-1.92-3.84.642-1.92 4.48-2.56 2.56 1.92 1.28 3.84h1.92l2.56 1.92 3.84 5.12 3.2.64 1.28 2.56 1.28 7.68 2.56-1.28-.64-1.92 1.28-2.56-1.28-2.56v-2.56l-2.563.64-1.28-2.56-1.92 1.28-1.92-2.562-1.92-4.48-4.48-1.28.64-4.478h-2.56l.64-.64 2.56 1.28 2.56 3.2 2.563-.642-2.562-1.92 1.28-3.2 2.56-2.56 3.84-.64-3.84-1.28-3.84-2.56 1.28-2.56 2.56-2.56 1.92-3.2-2.56-.642-1.92-3.2 1.28-1.92-.64-3.84 1.28-3.84-1.28-1.28 1.28-3.2 1.28-.64-1.28-3.84-.64-3.84-1.92-1.28-1.92-2.56-1.28-3.84 1.92-1.92 1.28 2.56.64-2.56 2.56.64-1.28-1.92v-3.84l1.92-2.56 1.28-.64 2.56 1.28 1.92 1.92 2.56 4.478 1.28 1.92.643-1.92.64-1.92-1.28-1.92 2.562.64-1.28-1.28-1.28-2.56-.64-3.84 1.92.64-3.2-5.12-3.2-.64-1.28-2.56-1.278-1.92.64-1.92h1.92l2.562 1.92 1.92-.64v-1.92l-4.48-2.56v-1.92l-2.56-2.562-2.563-2.56-1.92-1.28-1.92-1.92h-2.56l-3.2-1.92c-3.2-3.2-3.2-3.2-12.16-9.6l-2.56-2.56c-62.722-26.88-134.4-30.08-199.682-8.96l3.84-1.28c-2.56 1.92-5.76 2.56-8.96 3.84l-5.12 2.56c-1.92.64-3.198 1.92-5.76 2.56l1.92-1.28 2.562-2.56.64-.64c-.64.64-1.92.64-2.56 1.28l.64.64v.64l-2.56 2.56-2.562 1.28h-1.28l-3.2 1.92-3.84 1.92v1.28l-2.56 1.28-4.48 1.28h.642l4.48-1.92-.64 1.28c-1.92 1.28-3.2 1.92-5.12 2.56-2.56.64-4.48 1.92-7.04 2.56-2.562 1.92-5.76 3.2-8.32 5.76l-1.28.64 2.56-2.56-2.56 1.28h-.64c2.56-1.92 4.48-3.2 7.04-5.12l.64-1.28 2.56-2.56c1.92-1.28 3.2-2.56 5.762-3.84-1.92.64-3.2 1.92-5.12 2.56h-.64l-.648 1.28-3.2 1.92-1.28.64 2.563-1.92v.64l-1.92 1.92-.643 1.28c-1.92 1.28-3.198 2.56-5.12 3.2l-1.278.64-3.84 2.56-1.923 2.562-2.56 2.56 2.56-1.28-.64 1.28-3.2 3.2-3.2.64h1.92l-1.28 1.28 2.56-.64c2.56-1.92 3.84-2.56 6.4-4.48l3.84-1.28 1.92 1.28-1.92 2.56-2.56 1.92-5.12 3.2-1.28-.64-2.56 3.2-3.2 1.92 1.92 1.28-3.2 2.56h-2.56l-3.2 2.56 1.92.64h2.56l3.84-1.92c-.64 1.92-1.92 3.2-2.56 5.12l-2.56 2.56-1.28 1.92h-1.92l-2.56 2.562-1.92.64-2.562-2.56.64-2.56 1.92-2.56-1.92.64h-3.84l-.64-.64 1.28-2.562-.642-.64-2.56 1.28.64-1.92-1.28-.64h-2.56l-2.56.64-3.2 1.92-1.92 3.2c-2.562 1.92-4.48 3.2-6.4 5.12l-1.28 2.56c-2.56 3.2-5.12 7.04-8.318 9.6-1.28 2.56-2.562 3.84-3.84 6.4-.642 2.56-1.922 3.84-2.562 6.4l-2.56 1.92-2.562 2.56-3.84 4.48-3.2 5.76.642.64 2.56-1.92 5.12-5.12 1.92-2.56.64 2.56 1.92.64 2.562-.64 2.56-1.92 2.562-3.2 2.56-3.84h3.2l3.2-2.56 5.76-3.84.64.64-1.28 2.56v2.56l1.28 1.28c-1.28 2.56-2.56 3.84-3.2 6.4l-2.56.64v3.2l-2.56 2.56-3.84 3.84-.643 2.56-1.92 2.562 2.56 1.28 3.842-1.28h1.92c-3.2 5.12-6.4 10.24-8.96 16l-3.2 1.28-.64 4.48-1.28 3.2.64 3.84-.64 2.56-2.564 3.2.642 1.92-.643 2.56-2.56 3.84h-1.92l-1.28-1.28-2.56-2.56h-3.2l-1.92-2.56-1.28-5.12-.64-3.2-.64-2.56-2.56.64-1.92-1.92-3.84.64h-2.563l.64 1.92 3.842-.64 3.198 2.56 1.28 2.56-1.28 3.2h-2.56c-1.92 2.562-3.2 4.48-4.48 7.68l-.64 4.48 1.92 3.2 3.84-1.92-1.92 3.84-.64 2.56-2.56-.64-3.2-2.56-1.92-1.28h-2.562v-2.56l2.563-2.56 2.56 1.28-.64-3.84-.64-2.56-.642 1.92-1.92-1.28-1.92-1.28-1.28-1.92-1.92.64h-.64l-1.28 1.92-.64 3.2v1.28l1.28-1.92-.64 1.92-.64.64-.642-1.28v-1.28l-.64-1.28c0-.64 0-1.92-.64-2.56v-.64l.64 2.56-.64 1.92-.642-2.56v-1.92h-.64v1.28l-1.92 1.92-1.92.64.64-1.28v-.64l.64-1.92-1.278 2.56-.642 1.28-.634 1.28v.64l-1.92 1.28v-.64l1.28-1.92 1.28-2.56 1.92-2.56-1.28 1.278-1.92 2.56.64-2.56-1.28 2.56-2.56 3.2v1.28c-1.28 1.92-1.92 3.2-2.56 5.12l-1.28.64v-1.92h-1.28c-11.52 25.6-19.2 53.76-21.76 82.56v.64c-1.28 16.642-1.92 32-1.28 46.722.64 1.28.64 2.56 1.28 3.84l-.64-1.92v2.56l.64 2.562.64 3.84v3.2l.642 1.28 1.92 9.6v2.56l1.28 2.562c.64 1.92.64 3.84 1.28 5.76l1.92 3.842v-.643l1.28 1.92c1.278 2.563 2.56 5.763 3.198 8.32l1.92 6.4.64 2.56.642.64c1.28 3.843 1.92 7.683 2.56 11.52l1.28 1.92.64 2.563-1.92.64.64 1.92 3.2 5.122.642 3.84 1.28-.642c2.56 3.2 4.478 7.68 7.04 10.88l1.92 3.2v1.92l2.56 1.92 5.12 7.04 3.84 3.198c2.56 4.48 6.4 8.32 8.32 13.44l2.56 2.56 2.56 2.563 1.28 1.92c1.28 2.56 1.92 5.12 2.562 7.68l.64 4.48-.64 1.28-2.56 1.278-.642 2.56v1.28l-.64-1.28v1.92c1.92 3.84 3.2 8.32 5.12 11.52v.645l.64 1.92c38.4 47.357 91.52 81.92 150.4 96.64 56.32 14.72 117.12 12.16 171.52-8.32 101.12-37.12 175.36-129.92 187.52-237.44 1.297-9.604 1.297-19.204 1.297-29.444zm-305.92 27.52l5.12.64c2.56 0 5.12-.64 8.32-.64l-1.92 3.198.64 1.28-1.28 2.562-3.2-1.92-2.56-.64-6.4-2.562 1.28-1.917zm106.24-169.6l2.563-4.48-2.562.64 1.92-5.12-1.92-1.92c2.565-2.56 4.48-5.76 7.04-8.318l4.48-3.2 1.92-2.56 2.56-2.56 2.565.64v1.92c-2.562 3.2-5.12 6.4-7.68 9.6l-2.562 6.4-.64 4.48-.64 5.12 2.56 2.56 5.12.64-1.28 1.28-7.68 2.56-1.92-1.92-3.84.64-1.92-1.92 1.92-1.92v-2.562zm-299.52 19.2c-1.92.64-3.2 1.92-5.76 2.56h1.92v2.56l-1.28.642.64 2.56h1.28l.64 3.2-2.56 1.92 1.28 1.28-1.28 1.92-1.28 2.56-2.56 1.92-.64-.64-.64-2.56 2.56-2.56v-1.28l-3.2.64-1.28-.64h2.562l-.64-2.56-1.28-2.562-1.92-4.48.64-1.28h1.92l.64-1.92h2.562l5.76-2.56 2.56-.64 1.92.64.643 1.28h-3.206zm107.52 14.08h-2.56c-2.56-2.56-6.4-3.84-8.96-6.4l3.2-.64-3.84-4.48 4.48 1.28.64-1.28-3.84-3.2 2.56-1.92 3.84 1.28 2.56 4.48 5.12-.64 2.56 2.56 5.12-.64 3.842 1.92-2.56 2.56 1.92 3.84-5.12 1.92c-3.202 0-5.76 0-8.96-.64zm7.68 60.8l-4.48-2.56 3.84-3.2-.64-5.12c2.56-1.28 5.76-2.56 8.96-3.2l2.56.64 2.563 3.2-2.562 2.56-.64 3.2-2.56 3.84-7.04.64zm38.4 7.04l-2.56 1.28 1.28 2.56-3.84 1.28-5.12-1.28h-7.04l-1.92-1.28-2.56 1.92-3.2-1.92-2.56 1.28-1.92-1.28 7.04-3.2h3.198l-5.76-2.56-.64-2.56 3.84-.64-1.28-2.56 1.92-2.56 5.12 1.92 1.28-2.562-1.92-3.2-3.84-1.92-.642-1.28 1.92-1.92-.64-1.92-3.2 1.92 1.28-3.84-1.28-2.56 2.562-3.84 3.2-2.56 2.56 1.28 3.84.64-5.12 3.84h3.84l3.84.64-1.92 3.2-3.84 3.2 3.2 1.28 2.56 6.4 2.562 1.28 1.28 5.76.64 1.92 4.48 1.92-.64 1.922zm-55.04-219.52l3.842-3.2 2.56-2.56 2.56-1.92h1.28l-2.56 1.92c1.92-1.28 4.48-2.56 7.04-4.48l2.56-1.28.64 1.28-.64.64c-3.2 1.92-6.4 3.2-9.6 4.48l-2.562 1.92 5.12-1.92v.64l-1.92 1.28c-1.28.64-2.56.64-3.84 1.28l-.64 1.28-1.92 1.28-1.92-.64zm10.88 18.56l-.64 1.28-1.92 1.28h2.56l.643 1.28v1.92l-.642 1.92-.64.64.64 2.56v9.6l-.64 3.84-1.28.64-2.56-1.92-1.92-1.28-.64-.64.64 2.56-2.56-1.92-1.92-1.28-3.2-.64-.64-2.56-.64-.64v-3.2l-.64 1.92-.64-.64-2.56 1.92-1.28-.64-.64-1.92h-1.92l-1.28-1.28-1.92.64v2.56l-1.28.64-1.92-2.56 2.56-3.84.64-3.2c1.28-1.92 1.92-2.56 2.56-4.48l1.92-.64-.64 2.56 3.2-1.92v.64l-3.2 3.84 3.2-2.56 1.92-2.56 1.28.64v1.92h1.28l2.56-2.56 2.56-1.28-1.92 3.2-.64 1.28 1.28 1.28 1.28-2.56 1.28-3.84 2.56-2.56 2.56-1.28 2.56-.64 1.92-.642v1.92h-1.28l-1.276 1.92 1.278 1.282zm-10.88-6.4h1.28l.64.64 1.922-2.56 2.56-1.28 2.56-1.28 1.28.642.642.64-.64 1.28 1.28-.64-1.92 2.56-2.563 1.92c-1.275 1.28-2.56 2.56-3.196 3.84l-4.48 1.92-1.92 1.92-.64-1.28-1.92-1.92 1.28-2.56 2.56-2.56 1.28-1.28zm-1.28-1.92l.64-1.92 1.92-1.28 1.92-.64 1.92-.64-1.28 1.92-.64.64-2.56 1.92h-1.92zm-4.48 2.56l-2.56 1.92-1.92 2.56-1.92 1.92h-1.28l-1.28 1.28-1.28 1.28c-.64 1.28-1.92 2.56-2.56 3.84v1.92l-1.28 2.56-1.28 2.56-1.92 2.562-1.92 1.28-1.278-.64v-3.2l1.28-1.92 1.28-3.84 1.28-2.56 1.92-2.562 3.198-3.84 2.56-1.28 2.562-.64 2.56-1.92 2.56-2.56 2.563-1.92h1.28l-2.564 3.2zm12.8-8.32l-2.56.64-1.92.64 2.56-1.92 2.563-1.92 2.56-2.56v1.28l2.56-1.28h1.922c-3.204 1.92-5.764 3.84-7.684 5.12zm-16 3.84l1.92-1.28 2.563-.64 1.92-1.92 2.56-1.28-1.92 1.92-.64 1.92-1.92 1.92h.64l-2.56.64-1.92.642h-2.562l1.92-1.92zm-14.08 5.12l1.92-1.28c2.563-1.92 5.12-3.2 8.32-5.12h1.28l-2.56 2.56 3.2-1.92v1.28l-2.56 1.92-1.92 2.56-1.28.642-.643-.64-3.84 1.92-2.56-.64.644-1.282zm-.64 2.56l3.84-1.92 1.92-.64 1.28.64v1.28l-2.56 2.56-1.92 3.2-2.56-1.28.64-1.92-1.92-.64 1.28-1.28zm-41.6 34.56l1.92-1.92-1.28-.64-.64-2.56 2.56-1.92.64-2.56 1.28.64 2.562-1.28 2.56-1.28-.64 1.28-1.92 1.28v.64l-1.28 3.2c-1.28 1.92-2.56 3.2-3.2 5.12l-1.92 1.28v1.28l-1.92 1.92-.64-1.28 1.918-3.2zm7.68 19.84l-1.92 1.28-1.92 3.2-1.92 3.2-.64 1.28-3.2 3.2-2.56 1.28.64-2.56 2.56-6.4c-1.92 2.56-2.56 5.12-4.48 8.32l-1.277.64.64-5.76 1.92-5.12 1.92-3.2h1.28c1.28-2.56 2.56-5.12 3.2-7.68l-1.28.64v-4.48l1.92-2.56 2.56-.64-.64 3.2v3.198l1.28-1.28 1.92-.64h3.2l1.92-1.28 1.278-1.28 1.92-3.2 1.925-3.84.64.64 2.56-2.56.642-1.92 1.92-1.92.64-1.28v-2.56l2.562-6.4c1.92-2.56 2.56-4.48 3.84-6.4l1.92-1.92 1.28 1.28 1.28-2.56 3.84-1.92h2.56l.64 1.28-.64 3.2h-3.84l-2.56 2.56h2.56l.64 2.56-4.48 3.84-2.56.64.64 2.562 1.28.64-2.56 3.84-1.92 2.56-1.92 1.92 1.276 2.56-2.56 2.562-1.28 4.48-1.278 2.56-3.2 3.2-2.56-1.92-1.922 5.12v2.56l-2.56 4.48.64 2.56-2.56 1.28h-5.12l1.28-3.2 2.56-5.12-1.923 1.278zm0 58.24v-5.12l-2.56-3.2.64-3.2 2.56-3.84 2.563-7.04 1.92-2.56 2.56-2.56 1.92-5.12 2.562-1.92.64-2.56 5.12-1.92 2.56 1.28 1.92-.64 2.562-1.92-2.562-.642-1.278-.64-1.28-1.28v-2.56l2.56-1.92 2.562-1.28 1.28 1.28 1.275 3.2c.642-2.56.642-3.84 1.28-6.4l-1.28-1.28v-1.92l4.48-1.28 1.28-1.92c1.92-2.56 3.198-4.48 5.118-7.04l.642-2.56 1.92-1.28 1.28-4.48-.642-2.56c-.64-2.56-1.28-3.84-1.92-6.4l1.28-2.56 2.56-3.2 1.92 2.56.642 2.56.64-5.76 1.92-3.2 1.92-.64 2.562 3.84 2.56 3.2 1.28-3.84 1.92.64 3.84 2.56 1.28 1.28 1.92-1.28 2.56 1.92 2.56 2.562 1.92 2.56-.64 1.92 3.84 1.28.64 3.2.64 1.92.643 2.56v-3.2l1.92-1.28 5.12 1.92 2.56 3.2h2.563c4.48 2.56 8.318 6.4 12.8 8.96 1.92 2.56 3.84 4.48 6.4 7.04h-3.2c-3.842-2.56-8.32-3.84-12.8-6.4v1.28l4.478 2.56 2.56 3.2 3.2.642v1.92l-3.2 1.28 4.48.64c2.56.64 5.76 1.28 8.32 1.92l4.48 2.56v1.92h-8.32l-1.92.64-5.76-1.92 3.2 1.92-3.84 1.92-2.56 1.92-2.56 3.84.64 3.2-2.56-1.28h-3.84l1.92 3.2-1.92 3.2-2.563-.64.64 3.84-4.478-1.92 1.28 2.56-1.92 1.28-2.563-.64-2.56-1.28.64 3.2-1.28 1.92-2.56-3.2-1.92.64 1.92 2.56 1.28 3.2-1.28 2.562-3.84-1.28c-.642-1.92-1.28-3.2-1.92-5.76l-1.28 2.56-3.2.64c2.562 1.92 5.12 2.56 8.32 4.48l-8.32.64h-7.68l-7.04-2.56-2.56-1.28h-4.483l-5.76 1.92-5.76-.64-1.28-.64c-2.562-.64-3.84-1.92-6.4-2.56l-2.56 1.28-2.562 2.56-2.56 1.92h-5.12l-1.92 3.2c-2.56 1.92-4.48 2.56-7.04 4.48l-1.92-.644zm316.8 347.52l-1.28 1.28-.64-1.28-1.28 1.28v3.2l-1.277 1.28-1.28 2.56c-4.48 5.76-8.96 10.88-14.08 16l-2.562 2.562c-2.56 1.277-4.476 2.56-7.036 3.197h-4.48l-.64-.64.64-1.92-.64-1.28.64-1.92 1.28-1.92 1.92-1.28.64-.64 2.563-2.56 1.28-1.92-1.28-1.28v-1.28l.64-2.56 1.92-1.92 1.28-1.922 2.56-.64c1.28-.64 2.562-1.28 3.842-2.56l1.92-.64c2.56-1.92 4.48-3.202 7.04-5.122l1.92-1.92v1.92h1.92l2.56-2.556.64-1.92 1.92-1.92 1.28.64.64.64.64 1.922-1.92 2.56.64 1.28-1.93 1.282zm116.48-140.16l-1.28 2.56-2.56 3.2-.64-1.92-.64-5.12 1.278-8.32 1.92.643 1.28 1.92 1.28 2.556v4.48h-.637z"/></svg>