<svg xmlns="http://www.w3.org/2000/svg" width="519.136" height="519.125" viewBox="60.347 60.438 519.136 519.125"><path d="M319.918 60.438c-20.735 0-40.8 2.69-60.13 7.285l9.14 5.98 35.998 5.082 16.62-3.693 31.112 3.8 6.24 8.316-21.668-2.887-22.154 9.23 6.36 16.547 22.89 10.4 3.05-20.942 21.7-1.388 30.92 29.53 8.762 11.55 4.158 7.38-24.004 9.467-36.26 16.434-2.972 16.09-23.994 22.62.933 21.7-7.266-.068-2.897-18.4-13.753-4.493-39.54 2.082-15.936 29.17 13.854 16.62 22.887-12.49 1.562 20.333 8.773 6.924 15.676 18.002-.772 22.732 28.942 6.796 21.22-15.233 9.698 3.227 35.597 14.21 49.96 18.728 10.397 24.97 35.576 17.323 8.12 30.536-24.274 27.152-28.617 29.995-30.344 15.696-31.222 20.8-41.613 27.057-23.044 23.448-8.175-8.89 18.49-46.854 4.67-54.312-39.804-36.17.26-30.43 10.41-12.487 12.222-36.152-24.698-13.796-16.663-27.046-26.033-10.005-40.81-21.986-16.65-45.79-8.32 22.888-12.485-37.446 4.156-56.183 20.81-18.73-6.24-12.487L215.3 89.296l-28.37 8.11C111.21 142.73 60.348 225.323 60.348 320c0 143.34 116.207 259.562 259.573 259.562 143.338 0 259.562-116.225 259.562-259.562 0-143.354-116.226-259.562-259.564-259.562z" opacity=".7"/></svg>